<svg width="85" height="73" viewBox="0 0 85 73" fill="none" xmlns="http://www.w3.org/2000/svg">
<path d="M45.9106 56.3295C42.9538 56.3295 40.5566 58.7063 40.5566 61.6381C40.5566 64.57 42.9538 66.9468 45.9106 66.9468C48.8674 66.9468 51.2645 64.57 51.2645 61.6381C51.2645 58.7063 48.8674 56.3295 45.9106 56.3295Z" fill="url(#paint0_linear_21_140)"/>
<path d="M32.8373 65.403V59.2663C34.0642 59.0561 35.0011 57.9672 35.0011 56.6531C35.0011 55.1873 33.841 54 32.4087 54C30.9764 54 29.8163 55.1873 29.8163 56.6531C29.8163 57.1718 29.9645 57.6537 30.2155 58.0623L27.2939 60.4669C26.5476 59.0578 25.0892 58.1006 23.4125 58.1006C20.9749 58.1006 19 60.1234 19 62.6165C19 65.1112 20.9765 67.1323 23.4125 67.1323C25.8502 67.1323 27.8251 65.1095 27.8251 62.6165C27.8251 62.1629 27.7583 61.7243 27.6361 61.3107L30.7858 58.7193C31.1247 58.9978 31.5337 59.1912 31.9818 59.2663V65.5047C30.5854 65.8666 29.5507 67.1573 29.5507 68.6998C29.5507 70.5225 30.9944 72 32.7753 72C34.5563 72 36 70.5225 36 68.6998C35.9984 66.8988 34.5889 65.438 32.8373 65.403Z" fill="url(#paint1_linear_21_140)"/>
<path d="M25.2393 5.68863V11.3854C24.1079 11.5683 23.2451 12.5232 23.2451 13.6756C23.2451 14.9586 24.3143 16 25.6354 16C26.9548 16 28.0258 14.9602 28.0258 13.6756C28.0258 13.4699 27.9955 13.2708 27.9435 13.0798L30.9767 11.3773C31.7187 12.1412 32.7661 12.6195 33.9311 12.6195C36.1787 12.6195 38 10.8484 38 8.66272C38 6.47705 36.1787 4.70598 33.9311 4.70598C31.6834 4.70598 29.8621 6.47705 29.8621 8.66272C29.8621 9.43644 30.0938 10.1547 30.4882 10.7635L27.6178 12.3746C27.2586 11.8572 26.6896 11.4915 26.0316 11.3854V5.77841C27.6464 5.7474 28.9456 4.46766 28.9456 2.89084C28.9456 1.29443 27.6145 0 25.9728 0C24.3311 0 23 1.29443 23 2.89084C22.9983 4.24077 23.9518 5.37196 25.2393 5.68863Z" fill="url(#paint2_linear_21_140)"/>
<path d="M3.81175 26.064C3.88765 26.064 3.96354 26.0571 4.03775 26.052L5.01767 30.4707C2.29548 30.6481 0.139992 32.93 0.139992 35.7268C0.139992 38.6397 2.47426 41 5.35499 41C8.23572 41 10.57 38.6397 10.57 35.7268C10.57 33.0579 8.60678 30.8579 6.06337 30.5083L5.03116 25.8576C6.53562 25.3426 7.62011 23.9066 7.62011 22.2114C7.62011 21.9181 7.58469 21.6333 7.52397 21.3587L11.3897 19.1024C12.3156 20.5708 13.9365 21.5463 15.785 21.5463C18.6657 21.5463 21 19.186 21 16.2731C21 13.3603 18.6657 11 15.785 11C12.9043 11 10.57 13.3603 10.57 16.2731C10.57 16.9502 10.6999 17.5931 10.9292 18.1883L7.16473 20.3866C6.52045 19.1809 5.26055 18.3606 3.81006 18.3606C1.70517 18.3606 0 20.0848 0 22.2131C0.00168661 24.3398 1.70854 26.064 3.81175 26.064Z" fill="url(#paint3_linear_21_140)"/>
<path d="M45.5 8C43.5662 8 42 9.56777 42 11.5C42 13.4338 43.5678 15 45.5 15C47.4338 15 49 13.4322 49 11.5C49.0016 9.5662 47.4338 8 45.5 8Z" fill="url(#paint4_linear_21_140)"/>
<path d="M16.7061 49.8988C17.2681 50.4456 18.0371 50.783 18.8886 50.783C20.6067 50.783 22 49.4068 22 47.7099C22 46.2872 21.019 45.0939 19.6896 44.7432L19.1797 37.1312C20.7615 36.9866 22 35.6736 22 34.0731C22 32.3761 20.6067 31 18.8886 31C17.1705 31 15.7772 32.3761 15.7772 34.0731C15.7772 35.5157 16.7851 36.7223 18.1431 37.0531L18.653 44.6485C17.046 44.7682 15.7789 46.0911 15.7789 47.7099C15.7789 48.1986 15.8983 48.6589 16.1036 49.0694L9.78823 52.671C9.07811 51.865 8.03649 51.3547 6.87034 51.3547C4.73324 51.3547 3 53.0666 3 55.1774C3 57.2881 4.73324 59 6.87034 59C9.00744 59 10.7407 57.2881 10.7407 55.1774C10.7407 54.584 10.5993 54.0239 10.3553 53.522L16.7061 49.8988Z" fill="url(#paint5_linear_21_140)"/>
<path d="M58.9968 20.4759H58.1827C57.513 20.4759 56.9228 20.6985 56.412 21.1421C55.9337 21.5551 55.6937 22.0793 55.6937 22.7133V41.2869C55.6937 45.1923 54.4645 48.2879 52.0079 50.5721C49.5512 52.8579 46.1833 54 41.9073 54C36.8659 54 33.0033 52.8885 30.3229 50.6673C27.6425 48.4137 26.3015 45.302 26.3015 41.3337V22.8569C26.3015 22.1584 26.0469 21.5873 25.5361 21.1421C25.0577 20.6969 24.4675 20.4759 23.7654 20.4759H23V20H36.7864V20.4759H36.021C35.3189 20.4759 34.7287 20.6985 34.2503 21.1421C33.7719 21.5551 33.5157 22.0938 33.4849 22.7617V40.953C33.4849 44.318 34.3152 46.9845 35.974 48.9525C37.6329 50.9205 39.916 51.9045 42.8186 51.9045C45.7228 51.9045 48.0205 50.9834 49.7118 49.1429C51.403 47.27 52.2641 44.7455 52.2965 41.5708V22.7617C52.2965 22.0955 52.0419 21.5551 51.5311 21.1421C51.0528 20.6969 50.4626 20.4759 49.7604 20.4759H48.995V20H59V20.4759H58.9968Z" fill="url(#paint6_linear_21_140)"/>
<path d="M79.0434 51.55H79.6734V52H64.3284V51.55H64.9134C65.5434 51.55 66.0534 51.25 66.4434 50.65C66.6234 50.32 66.7134 50.005 66.7134 49.705C66.7134 49.405 66.6234 49.105 66.4434 48.805L60.1884 39.04L51.4584 51.46C47.9184 56.44 44.0334 58.93 39.8034 58.93C39.1734 58.93 38.5284 58.87 37.8684 58.75V58.3C40.5084 58.06 42.7734 56.935 44.6634 54.925C45.5634 53.965 46.6434 52.63 47.9034 50.92L58.4334 36.34L50.1984 23.605C49.5084 22.555 48.5934 21.79 47.4534 21.31C46.8534 21.07 46.2534 20.95 45.6534 20.95H45.0234V20.5H60.3234V20.95H59.7384C59.1084 20.95 58.5984 21.25 58.2084 21.85C58.0284 22.18 57.9384 22.51 57.9384 22.84C57.9384 23.14 58.0134 23.425 58.1634 23.695L63.6984 32.2L71.5284 20.68C74.9484 15.67 78.7884 13.165 83.0484 13.165C83.4084 13.165 83.7834 13.18 84.1734 13.21V13.66C81.7134 13.72 79.2534 15.415 76.7934 18.745C76.4334 19.195 76.0734 19.675 75.7134 20.185C75.3834 20.695 75.1734 20.995 75.0834 21.085L65.4984 34.99L74.4984 48.94C75.0084 49.69 75.6684 50.32 76.4784 50.83C77.3184 51.31 78.1734 51.55 79.0434 51.55Z" fill="url(#paint7_linear_21_140)"/>
<defs>
<linearGradient id="paint0_linear_21_140" x1="40.5566" y1="64.7116" x2="51.2638" y2="64.7866" gradientUnits="userSpaceOnUse">
<stop stop-color="#035D95"/>
<stop offset="0.231875" stop-color="#049BBE"/>
<stop offset="0.836875" stop-color="#01C8EE"/>
</linearGradient>
<linearGradient id="paint1_linear_21_140" x1="19" y1="68.2105" x2="35.9989" y2="68.322" gradientUnits="userSpaceOnUse">
<stop stop-color="#035D95"/>
<stop offset="0.231875" stop-color="#049BBE"/>
<stop offset="0.836875" stop-color="#01C8EE"/>
</linearGradient>
<linearGradient id="paint2_linear_21_140" x1="23" y1="12.6316" x2="37.999" y2="12.7292" gradientUnits="userSpaceOnUse">
<stop stop-color="#035D95"/>
<stop offset="0.231875" stop-color="#049BBE"/>
<stop offset="0.836875" stop-color="#01C8EE"/>
</linearGradient>
<linearGradient id="paint3_linear_21_140" x1="1.3174e-08" y1="34.6842" x2="20.9991" y2="34.7863" gradientUnits="userSpaceOnUse">
<stop stop-color="#035D95"/>
<stop offset="0.231875" stop-color="#049BBE"/>
<stop offset="0.836875" stop-color="#01C8EE"/>
</linearGradient>
<linearGradient id="paint4_linear_21_140" x1="42" y1="13.5263" x2="48.9995" y2="13.5749" gradientUnits="userSpaceOnUse">
<stop stop-color="#035D95"/>
<stop offset="0.231875" stop-color="#049BBE"/>
<stop offset="0.836875" stop-color="#01C8EE"/>
</linearGradient>
<linearGradient id="paint5_linear_21_140" x1="3" y1="53.1053" x2="21.9992" y2="53.1948" gradientUnits="userSpaceOnUse">
<stop stop-color="#035D95"/>
<stop offset="0.231875" stop-color="#049BBE"/>
<stop offset="0.836875" stop-color="#01C8EE"/>
</linearGradient>
<linearGradient id="paint6_linear_21_140" x1="23" y1="46.8421" x2="58.9973" y2="47.1067" gradientUnits="userSpaceOnUse">
<stop stop-color="#035D95"/>
<stop offset="0.231875" stop-color="#049BBE"/>
<stop offset="0.836875" stop-color="#01C8EE"/>
</linearGradient>
<linearGradient id="paint7_linear_21_140" x1="47" y1="47.2105" x2="76.9984" y2="47.3794" gradientUnits="userSpaceOnUse">
<stop stop-color="#035D95"/>
<stop offset="0.231875" stop-color="#049BBE"/>
<stop offset="0.836875" stop-color="#01C8EE"/>
</linearGradient>
</defs>
</svg>
