<svg xmlns="http://www.w3.org/2000/svg" version="1.1" width="500px" height="500px"
  style="shape-rendering:geometricPrecision; text-rendering:geometricPrecision; image-rendering:optimizeQuality; fill-rule:evenodd; clip-rule:evenodd"
  xmlns:xlink="http://www.w3.org/1999/xlink">
  <g>
    <path style="opacity:0.422" fill="#899ca7"
      d="M 285.5,86.5 C 242.853,87.4727 200.186,87.8061 157.5,87.5C 180.183,86.8083 203.016,86.1416 226,85.5C 245.992,86.3492 265.826,86.6825 285.5,86.5 Z" />
  </g>
  <g>
    <path style="opacity:1" fill="#1a2733"
      d="M 285.5,86.5 C 290.807,91.4721 296.14,96.4721 301.5,101.5C 302.833,104.833 305.167,107.167 308.5,108.5C 315.629,114.458 322.629,120.625 329.5,127C 339.323,134.412 342.989,144.245 340.5,156.5C 340.166,166.503 339.833,176.503 339.5,186.5C 336.694,181.563 333.861,176.563 331,171.5C 330.5,164.174 330.334,156.841 330.5,149.5C 330.5,146.5 330.5,143.5 330.5,140.5C 320.82,140.482 311.153,140.148 301.5,139.5C 299.5,139.5 297.5,139.5 295.5,139.5C 292.359,138.679 289.025,138.179 285.5,138C 283.622,136.457 282.122,134.624 281,132.5C 280.5,120.171 280.333,107.838 280.5,95.5C 238.997,95.168 197.663,95.5014 156.5,96.5C 142.199,100.635 133.033,109.969 129,124.5C 128.5,193.833 128.333,263.166 128.5,332.5C 127.667,264.668 127.167,196.668 127,128.5C 126.667,128.833 126.333,129.167 126,129.5C 125.667,126.833 125.333,124.167 125,121.5C 124.237,124.063 123.737,124.063 123.5,121.5C 123.667,120.833 123.833,120.167 124,119.5C 124.654,120.696 125.154,120.696 125.5,119.5C 125.023,118.522 124.357,117.689 123.5,117C 124.428,116.612 125.095,115.945 125.5,115C 125.011,113.862 124.678,112.695 124.5,111.5C 129.738,101.097 137.738,93.5966 148.5,89C 151.432,88.0467 154.432,87.5467 157.5,87.5C 200.186,87.8061 242.853,87.4727 285.5,86.5 Z" />
  </g>
  <g>
    <path style="opacity:1" fill="#fafbfb"
      d="M 156.5,96.5 C 194.833,96.5 233.167,96.5 271.5,96.5C 271.5,103.5 271.5,110.5 271.5,117.5C 266.167,117.5 260.833,117.5 255.5,117.5C 245.161,117.334 234.828,117.5 224.5,118C 221.141,120.034 220.808,122.368 223.5,125C 238.737,126.468 254.07,126.968 269.5,126.5C 269.858,130.509 270.358,134.509 271,138.5C 273.719,139.444 276.552,139.777 279.5,139.5C 281.121,141.117 283.121,142.284 285.5,143C 285.167,143.333 284.833,143.667 284.5,144C 279.316,144.174 274.316,144.674 269.5,145.5C 244.155,149.335 226.988,163.335 218,187.5C 216.183,195.401 215.35,203.401 215.5,211.5C 215.756,213.792 215.423,215.959 214.5,218C 217.079,219.612 217.079,221.112 214.5,222.5C 213.833,225.167 213.167,227.833 212.5,230.5C 211.063,227.558 209.729,224.558 208.5,221.5C 208.167,219.5 207.833,217.5 207.5,215.5C 206.523,210.232 206.523,204.899 207.5,199.5C 207.5,197.833 207.5,196.167 207.5,194.5C 198.161,194.334 188.827,194.5 179.5,195C 176.833,197.333 176.833,199.667 179.5,202C 186.826,202.5 194.159,202.666 201.5,202.5C 200.564,206.735 200.231,211.069 200.5,215.5C 193.159,215.334 185.826,215.5 178.5,216C 176.98,218.552 177.313,220.718 179.5,222.5C 185.979,223.491 192.646,223.824 199.5,223.5C 199.207,227.437 199.54,231.27 200.5,235C 192.989,235.171 185.655,235.671 178.5,236.5C 175.866,238.54 175.866,240.707 178.5,243C 186.827,243.5 195.16,243.666 203.5,243.5C 203.842,244.338 204.508,244.672 205.5,244.5C 208.233,248.876 210.899,253.209 213.5,257.5C 201.829,257.333 190.162,257.5 178.5,258C 175.92,260.12 175.92,262.287 178.5,264.5C 193.152,265.499 207.818,265.833 222.5,265.5C 224.885,270.299 228.552,273.633 233.5,275.5C 220.517,276.499 207.517,276.832 194.5,276.5C 188.824,276.334 183.157,276.501 177.5,277C 176.018,279.592 176.352,281.925 178.5,284C 209.498,284.5 240.498,284.667 271.5,284.5C 272.5,284.5 273.5,284.5 274.5,284.5C 275.167,285.167 275.833,285.833 276.5,286.5C 282.591,295.662 289.424,304.329 297,312.5C 303.041,322.75 309.208,332.917 315.5,343C 318.423,345.446 321.423,347.613 324.5,349.5C 322.833,351.833 320.833,353.833 318.5,355.5C 314.423,357.87 310.09,359.703 305.5,361C 256.833,361.667 208.167,361.667 159.5,361C 142.842,358.168 132.508,348.668 128.5,332.5C 128.333,263.166 128.5,193.833 129,124.5C 133.033,109.969 142.199,100.635 156.5,96.5 Z" />
  </g>
  <g>
    <path style="opacity:0.835" fill="#6c7982"
      d="M 301.5,101.5 C 304.167,103.5 306.5,105.833 308.5,108.5C 305.167,107.167 302.833,104.833 301.5,101.5 Z" />
  </g>
  <g>
    <path style="opacity:1" fill="#f3f7f8"
      d="M 289.5,104.5 C 299.276,113.105 308.943,121.938 318.5,131C 309.167,131.667 299.833,131.667 290.5,131C 289.874,130.25 289.374,129.416 289,128.5C 288.2,120.421 288.367,112.421 289.5,104.5 Z" />
  </g>
  <g>
    <path style="opacity:1" fill="#1d2c37"
      d="M 124.5,111.5 C 124.678,112.695 125.011,113.862 125.5,115C 125.095,115.945 124.428,116.612 123.5,117C 124.357,117.689 125.023,118.522 125.5,119.5C 125.154,120.696 124.654,120.696 124,119.5C 123.833,120.167 123.667,120.833 123.5,121.5C 123.737,124.063 124.237,124.063 125,121.5C 125.333,124.167 125.667,126.833 126,129.5C 126.333,129.167 126.667,128.833 127,128.5C 127.167,196.668 127.667,264.668 128.5,332.5C 132.508,348.668 142.842,358.168 159.5,361C 208.167,361.667 256.833,361.667 305.5,361C 310.09,359.703 314.423,357.87 318.5,355.5C 317.314,357.481 315.981,359.481 314.5,361.5C 312.983,360.089 311.649,360.256 310.5,362C 310.833,362.333 311.167,362.667 311.5,363C 310.167,363.667 308.833,364.333 307.5,365C 311.756,364.361 316.089,363.861 320.5,363.5C 315.575,366.198 310.241,368.032 304.5,369C 254.833,369.667 205.167,369.667 155.5,369C 135.873,364.374 124.04,352.207 120,332.5C 119.333,263.167 119.333,193.833 120,124.5C 120.635,119.757 122.135,115.424 124.5,111.5 Z" />
  </g>
  <g>
    <path style="opacity:1" fill="#293641"
      d="M 255.5,117.5 C 260.985,118.327 266.652,118.827 272.5,119C 273.591,121.064 273.758,123.231 273,125.5C 271.989,126.337 270.822,126.67 269.5,126.5C 254.07,126.968 238.737,126.468 223.5,125C 220.808,122.368 221.141,120.034 224.5,118C 234.828,117.5 245.161,117.334 255.5,117.5 Z" />
  </g>
  <g>
    <path style="opacity:1" fill="#c2cdd3"
      d="M 156.5,96.5 C 197.663,95.5014 238.997,95.168 280.5,95.5C 280.333,107.838 280.5,120.171 281,132.5C 282.122,134.624 283.622,136.457 285.5,138C 289.025,138.179 292.359,138.679 295.5,139.5C 289.903,140.688 284.57,140.688 279.5,139.5C 276.552,139.777 273.719,139.444 271,138.5C 270.358,134.509 269.858,130.509 269.5,126.5C 270.822,126.67 271.989,126.337 273,125.5C 273.758,123.231 273.591,121.064 272.5,119C 266.652,118.827 260.985,118.327 255.5,117.5C 260.833,117.5 266.167,117.5 271.5,117.5C 271.5,110.5 271.5,103.5 271.5,96.5C 233.167,96.5 194.833,96.5 156.5,96.5 Z" />
  </g>
  <g>
    <path style="opacity:1" fill="#28333e"
      d="M 224.5,134.5 C 237.837,134.333 251.171,134.5 264.5,135C 266.527,136.396 266.86,138.062 265.5,140C 252.278,142.441 238.945,143.108 225.5,142C 221.863,139.906 221.53,137.406 224.5,134.5 Z" />
  </g>
  <g>
    <path style="opacity:1" fill="#f4f7f8"
      d="M 295.5,139.5 C 297.5,139.5 299.5,139.5 301.5,139.5C 301.215,141.288 301.548,142.955 302.5,144.5C 310.992,150.521 320.326,152.188 330.5,149.5C 330.334,156.841 330.5,164.174 331,171.5C 333.861,176.563 336.694,181.563 339.5,186.5C 342.167,198.833 342.167,211.167 339.5,223.5C 337.656,227.01 335.989,230.677 334.5,234.5C 333.035,237.264 331.702,240.097 330.5,243C 331.18,247.477 331.68,251.977 332,256.5C 334.292,257.79 336.292,259.457 338,261.5C 338.383,260.944 338.883,260.611 339.5,260.5C 340.994,265.209 342.828,269.876 345,274.5C 350.164,284.166 355.831,293.5 362,302.5C 364.733,310.56 363.4,317.893 358,324.5C 355.791,326.373 353.958,328.54 352.5,331C 350.473,332.879 348.14,334.046 345.5,334.5C 343.08,334.708 340.747,334.374 338.5,333.5C 335.371,336.223 332.704,335.723 330.5,332C 332.833,330.957 335.166,330.124 337.5,329.5C 347.573,327.321 353.907,321.321 356.5,311.5C 356.389,309.286 355.722,307.286 354.5,305.5C 346.29,290.457 337.457,275.79 328,261.5C 325.204,257.092 321.704,256.426 317.5,259.5C 315.707,256.749 314.041,253.916 312.5,251C 333.449,230.039 338.282,205.873 327,178.5C 314.804,155.492 295.637,144.492 269.5,145.5C 274.316,144.674 279.316,144.174 284.5,144C 284.833,143.667 285.167,143.333 285.5,143C 283.121,142.284 281.121,141.117 279.5,139.5C 284.57,140.688 289.903,140.688 295.5,139.5 Z" />
  </g>
  <g>
    <path style="opacity:1" fill="#d0d8de"
      d="M 301.5,139.5 C 311.153,140.148 320.82,140.482 330.5,140.5C 330.5,143.5 330.5,146.5 330.5,149.5C 320.326,152.188 310.992,150.521 302.5,144.5C 301.548,142.955 301.215,141.288 301.5,139.5 Z" />
  </g>
  <g>
    <path style="opacity:1" fill="#212e39"
      d="M 171.5,108.5 C 190.461,108.322 203.295,116.989 210,134.5C 212.136,155.359 203.303,169.193 183.5,176C 169.495,178.582 158.328,174.082 150,162.5C 139.57,144.982 141.737,129.148 156.5,115C 161.381,112.218 166.381,110.051 171.5,108.5 Z" />
  </g>
  <g>
    <path style="opacity:1" fill="#18242f"
      d="M 189.5,141.5 C 185.196,147.638 180.029,152.971 174,157.5C 167.963,152.964 162.796,147.63 158.5,141.5C 159.437,137.717 161.771,136.217 165.5,137C 168.333,139.833 171.167,142.667 174,145.5C 178.746,139.946 183.913,134.946 189.5,130.5C 190.787,131.768 191.787,131.435 192.5,129.5C 193.478,129.977 194.311,130.643 195,131.5C 194.513,133.044 194.013,134.71 193.5,136.5C 192.178,136.67 191.011,136.337 190,135.5C 189.505,137.473 189.338,139.473 189.5,141.5 Z" />
  </g>
  <g>
    <path style="opacity:1" fill="#f6f8f9"
      d="M 189.5,130.5 C 183.913,134.946 178.746,139.946 174,145.5C 171.167,142.667 168.333,139.833 165.5,137C 161.771,136.217 159.437,137.717 158.5,141.5C 162.796,147.63 167.963,152.964 174,157.5C 180.029,152.971 185.196,147.638 189.5,141.5C 193.173,138.494 196.506,135.161 199.5,131.5C 204.758,142.941 202.758,153.107 193.5,162C 176.869,173.009 163.702,169.842 154,152.5C 148.782,135.766 154.282,123.933 170.5,117C 174.833,116.333 179.167,116.333 183.5,117C 186.833,119 190.167,121 193.5,123C 194.451,123.718 194.617,124.551 194,125.5C 192.293,127.037 190.793,128.704 189.5,130.5 Z" />
  </g>
  <g>
    <path style="opacity:1" fill="#202c37"
      d="M 269.5,145.5 C 295.637,144.492 314.804,155.492 327,178.5C 338.282,205.873 333.449,230.039 312.5,251C 314.041,253.916 315.707,256.749 317.5,259.5C 321.704,256.426 325.204,257.092 328,261.5C 337.457,275.79 346.29,290.457 354.5,305.5C 352.486,304.498 350.319,303.498 348,302.5C 347.856,305.025 347.69,307.358 347.5,309.5C 340.014,296.532 332.014,283.865 323.5,271.5C 325.288,271.785 326.955,271.452 328.5,270.5C 325.972,269.184 325.972,268.017 328.5,267C 325.456,266.641 325.122,265.974 327.5,265C 324.833,264.333 324.833,263.667 327.5,263C 327.167,262.667 326.833,262.333 326.5,262C 322.526,261.004 318.526,260.171 314.5,259.5C 313.069,259.977 311.736,260.643 310.5,261.5C 311.445,264.643 310.445,265.643 307.5,264.5C 308.468,261.726 307.635,259.392 305,257.5C 303.167,258.667 301.333,259.833 299.5,261C 300.5,262.667 301.5,264.333 302.5,266C 303.577,266.47 304.577,266.303 305.5,265.5C 304.426,267.216 302.759,268.216 300.5,268.5C 299.808,267.975 299.308,267.308 299,266.5C 297.968,268.027 296.801,269.36 295.5,270.5C 294.101,268.058 292.434,265.724 290.5,263.5C 279.18,266.107 267.846,266.107 256.5,263.5C 237.462,256.128 224.462,242.794 217.5,223.5C 217.461,219.267 216.795,215.267 215.5,211.5C 215.35,203.401 216.183,195.401 218,187.5C 226.988,163.335 244.155,149.335 269.5,145.5 Z" />
  </g>
  <g>
    <path style="opacity:1" fill="#eef3f5"
      d="M 268.5,153.5 C 289.682,152.674 306.182,161.008 318,178.5C 327.435,198.435 326.435,217.768 315,236.5C 301.418,254.362 283.585,261.195 261.5,257C 229.181,242.74 218.014,218.573 228,184.5C 236.182,167.015 249.682,156.682 268.5,153.5 Z" />
  </g>
  <g>
    <path style="opacity:1" fill="#23313c"
      d="M 207.5,199.5 C 206.596,200.209 206.263,201.209 206.5,202.5C 204.833,202.5 203.167,202.5 201.5,202.5C 194.159,202.666 186.826,202.5 179.5,202C 176.833,199.667 176.833,197.333 179.5,195C 188.827,194.5 198.161,194.334 207.5,194.5C 207.5,196.167 207.5,197.833 207.5,199.5 Z" />
  </g>
  <g>
    <path style="opacity:1" fill="#1b2833"
      d="M 147.5,185.5 C 155.167,185.5 162.833,185.5 170.5,185.5C 170.666,193.174 170.5,200.841 170,208.5C 162.333,209.833 154.667,209.833 147,208.5C 146.202,200.754 146.369,193.087 147.5,185.5 Z" />
  </g>
  <g>
    <path style="opacity:1" fill="#f5f8fa"
      d="M 154.5,192.5 C 157.167,192.5 159.833,192.5 162.5,192.5C 162.5,195.833 162.5,199.167 162.5,202.5C 159.833,202.5 157.167,202.5 154.5,202.5C 154.5,199.167 154.5,195.833 154.5,192.5 Z" />
  </g>
  <g>
    <path style="opacity:1" fill="#d2d9dd"
      d="M 207.5,199.5 C 206.523,204.899 206.523,210.232 207.5,215.5C 205.167,215.5 202.833,215.5 200.5,215.5C 200.231,211.069 200.564,206.735 201.5,202.5C 203.167,202.5 204.833,202.5 206.5,202.5C 206.263,201.209 206.596,200.209 207.5,199.5 Z" />
  </g>
  <g>
    <path style="opacity:1" fill="#17242f"
      d="M 200.5,215.5 C 202.833,215.5 205.167,215.5 207.5,215.5C 207.833,217.5 208.167,219.5 208.5,221.5C 199.014,222.494 189.348,222.827 179.5,222.5C 177.313,220.718 176.98,218.552 178.5,216C 185.826,215.5 193.159,215.334 200.5,215.5 Z" />
  </g>
  <g>
    <path style="opacity:1" fill="#2e3941"
      d="M 149.5,216.5 C 155.5,216.5 161.5,216.5 167.5,216.5C 167.5,218.833 167.5,221.167 167.5,223.5C 161.158,223.666 154.825,223.5 148.5,223C 147.144,220.586 147.478,218.419 149.5,216.5 Z" />
  </g>
  <g>
    <path style="opacity:1" fill="#212d37"
      d="M 264.5,158.5 C 289.477,155.902 307.311,165.902 318,188.5C 324.472,213.422 316.972,232.922 295.5,247C 264.932,258.632 243.098,249.466 230,219.5C 224.437,189.275 235.937,168.942 264.5,158.5 Z" />
  </g>
  <g>
    <path style="opacity:1" fill="#cfd6db"
      d="M 308.5,220.5 C 310.865,204.759 306.199,191.592 294.5,181C 290.061,177.643 285.061,175.643 279.5,175C 279.833,174.667 280.167,174.333 280.5,174C 274.689,170.541 268.689,168.708 262.5,168.5C 282.062,163.191 297.229,169.191 308,186.5C 311.355,195.874 312.355,205.541 311,215.5C 310.626,217.491 309.793,219.158 308.5,220.5 Z" />
  </g>
  <g>
    <path style="opacity:1" fill="#f9fbfb"
      d="M 262.5,168.5 C 268.689,168.708 274.689,170.541 280.5,174C 280.167,174.333 279.833,174.667 279.5,175C 285.061,175.643 290.061,177.643 294.5,181C 306.199,191.592 310.865,204.759 308.5,220.5C 303.224,233.597 293.557,241.431 279.5,244C 256.633,245.31 242.466,234.81 237,212.5C 234.046,191.001 242.546,176.334 262.5,168.5 Z" />
  </g>
  <g>
    <path style="opacity:1" fill="#1f2a34"
      d="M 291.5,187.5 C 296.813,187.644 298.979,190.31 298,195.5C 288.5,205.667 279,215.833 269.5,226C 267.711,226.52 266.044,226.187 264.5,225C 261,220.167 256.833,216 252,212.5C 251.66,207.178 254.16,205.011 259.5,206C 262.055,209.259 265.055,211.593 268.5,213C 276.402,204.604 284.069,196.104 291.5,187.5 Z" />
  </g>
  <g>
    <path style="opacity:1" fill="#1f2b34"
      d="M 263.5,172.5 C 268.547,171.638 271.047,173.638 271,178.5C 267.295,179.936 263.795,181.769 260.5,184C 256.019,188.635 252.019,193.635 248.5,199C 244.032,199.696 242.198,197.863 243,193.5C 248.025,184.643 254.858,177.643 263.5,172.5 Z" />
  </g>
  <g>
    <path style="opacity:0.767" fill="#758b90"
      d="M 339.5,223.5 C 339.252,226.58 338.586,229.58 337.5,232.5C 338.156,234.453 338.489,236.453 338.5,238.5C 337.732,237.737 337.232,236.737 337,235.5C 336.329,234.748 335.496,234.414 334.5,234.5C 335.989,230.677 337.656,227.01 339.5,223.5 Z" />
  </g>
  <g>
    <path style="opacity:1" fill="#cbd6db"
      d="M 215.5,211.5 C 216.795,215.267 217.461,219.267 217.5,223.5C 217.138,227.558 217.138,231.391 217.5,235C 216.473,235.513 215.473,236.013 214.5,236.5C 202.5,236.5 190.5,236.5 178.5,236.5C 185.655,235.671 192.989,235.171 200.5,235C 199.54,231.27 199.207,227.437 199.5,223.5C 192.646,223.824 185.979,223.491 179.5,222.5C 189.348,222.827 199.014,222.494 208.5,221.5C 209.729,224.558 211.063,227.558 212.5,230.5C 213.167,227.833 213.833,225.167 214.5,222.5C 217.079,221.112 217.079,219.612 214.5,218C 215.423,215.959 215.756,213.792 215.5,211.5 Z" />
  </g>
  <g>
    <path style="opacity:1" fill="#19242f"
      d="M 178.5,236.5 C 190.5,236.5 202.5,236.5 214.5,236.5C 215.529,238.517 216.529,240.517 217.5,242.5C 213.03,243.486 208.363,243.819 203.5,243.5C 195.16,243.666 186.827,243.5 178.5,243C 175.866,240.707 175.866,238.54 178.5,236.5 Z" />
  </g>
  <g>
    <path style="opacity:1" fill="#4b535c"
      d="M 150.5,235.5 C 155.179,235.334 159.845,235.501 164.5,236C 165.435,238.381 165.768,240.881 165.5,243.5C 160.456,243.827 155.456,243.494 150.5,242.5C 149.178,240.135 149.178,237.802 150.5,235.5 Z" />
  </g>
  <g>
    <path style="opacity:1" fill="#22323d"
      d="M 334.5,234.5 C 335.496,234.414 336.329,234.748 337,235.5C 337.232,236.737 337.732,237.737 338.5,238.5C 340.531,245.519 340.865,252.852 339.5,260.5C 338.883,260.611 338.383,260.944 338,261.5C 336.292,259.457 334.292,257.79 332,256.5C 331.68,251.977 331.18,247.477 330.5,243C 331.702,240.097 333.035,237.264 334.5,234.5 Z" />
  </g>
  <g>
    <path style="opacity:1" fill="#4a535c"
      d="M 217.5,242.5 C 218.289,242.783 218.956,243.283 219.5,244C 214.845,244.499 210.179,244.666 205.5,244.5C 204.508,244.672 203.842,244.338 203.5,243.5C 208.363,243.819 213.03,243.486 217.5,242.5 Z" />
  </g>
  <g>
    <path style="opacity:1" fill="#eaf0f3"
      d="M 307.5,264.5 C 306.833,264.833 306.167,265.167 305.5,265.5C 304.577,266.303 303.577,266.47 302.5,266C 301.5,264.333 300.5,262.667 299.5,261C 301.333,259.833 303.167,258.667 305,257.5C 307.635,259.392 308.468,261.726 307.5,264.5 Z" />
  </g>
  <g>
    <path style="opacity:1" fill="#202c37"
      d="M 213.5,257.5 C 218.844,257.334 224.177,257.501 229.5,258C 233.98,259.072 237.647,261.406 240.5,265C 234.509,265.499 228.509,265.666 222.5,265.5C 207.818,265.833 193.152,265.499 178.5,264.5C 175.92,262.287 175.92,260.12 178.5,258C 190.162,257.5 201.829,257.333 213.5,257.5 Z" />
  </g>
  <g>
    <path style="opacity:1" fill="#bfc8cf"
      d="M 217.5,223.5 C 224.462,242.794 237.462,256.128 256.5,263.5C 256.389,264.117 256.056,264.617 255.5,265C 252.5,265.333 249.5,265.667 246.5,266C 247.5,266.333 248.5,266.667 249.5,267C 248.328,267.419 247.328,268.085 246.5,269C 258.384,271.493 270.384,273.16 282.5,274C 280.956,274.29 279.623,274.956 278.5,276C 279.167,276.333 279.833,276.667 280.5,277C 278.216,278.363 278.049,279.863 280,281.5C 282.484,278.741 283.65,279.074 283.5,282.5C 280.37,282.7 277.37,283.366 274.5,284.5C 273.5,284.5 272.5,284.5 271.5,284.5C 273.23,283.621 274.563,282.288 275.5,280.5C 275.392,279.558 275.059,278.725 274.5,278C 247.664,277.832 220.997,277.332 194.5,276.5C 207.517,276.832 220.517,276.499 233.5,275.5C 228.552,273.633 224.885,270.299 222.5,265.5C 228.509,265.666 234.509,265.499 240.5,265C 237.647,261.406 233.98,259.072 229.5,258C 224.177,257.501 218.844,257.334 213.5,257.5C 210.899,253.209 208.233,248.876 205.5,244.5C 210.179,244.666 214.845,244.499 219.5,244C 218.956,243.283 218.289,242.783 217.5,242.5C 216.529,240.517 215.529,238.517 214.5,236.5C 215.473,236.013 216.473,235.513 217.5,235C 217.138,231.391 217.138,227.558 217.5,223.5 Z" />
  </g>
  <g>
    <path style="opacity:1" fill="#f8fafa"
      d="M 323.5,271.5 C 332.014,283.865 340.014,296.532 347.5,309.5C 345.612,319.111 339.945,322.611 330.5,320C 320.554,307.385 311.387,294.219 303,280.5C 302.383,279.551 302.549,278.718 303.5,278C 309.25,274.374 315.084,270.874 321,267.5C 322.095,268.693 322.928,270.027 323.5,271.5 Z" />
  </g>
  <g>
    <path style="opacity:1" fill="#4e5962"
      d="M 151.5,276.5 C 156.833,276.5 162.167,276.5 167.5,276.5C 168.395,282.947 165.562,285.28 159,283.5C 156.5,283.333 154,283.167 151.5,283C 148.939,280.844 148.939,278.677 151.5,276.5 Z" />
  </g>
  <g>
    <path style="opacity:1" fill="#1a2936"
      d="M 194.5,276.5 C 220.997,277.332 247.664,277.832 274.5,278C 275.059,278.725 275.392,279.558 275.5,280.5C 274.563,282.288 273.23,283.621 271.5,284.5C 240.498,284.667 209.498,284.5 178.5,284C 176.352,281.925 176.018,279.592 177.5,277C 183.157,276.501 188.824,276.334 194.5,276.5 Z" />
  </g>
  <g>
    <path style="opacity:1" fill="#ced7dd"
      d="M 256.5,263.5 C 267.846,266.107 279.18,266.107 290.5,263.5C 292.434,265.724 294.101,268.058 295.5,270.5C 294.969,272.544 293.802,274.211 292,275.5C 291.333,276.833 291.333,278.167 292,279.5C 302.33,295.321 312.83,310.987 323.5,326.5C 322.312,327.048 321.145,327.381 320,327.5C 318.229,325.32 316.396,322.486 314.5,319C 314.833,318.667 315.167,318.333 315.5,318C 314.256,317.544 313.423,318.044 313,319.5C 310.204,315.438 307.037,311.604 303.5,308C 304.452,306.7 304.452,305.533 303.5,304.5C 302.522,304.023 301.689,303.357 301,302.5C 299.989,303.337 298.822,303.67 297.5,303.5C 297.762,302.022 297.429,300.689 296.5,299.5C 293.762,296.754 290.762,294.42 287.5,292.5C 286.907,290.489 286.074,288.156 285,285.5C 282.256,285.214 279.423,285.547 276.5,286.5C 275.833,285.833 275.167,285.167 274.5,284.5C 277.37,283.366 280.37,282.7 283.5,282.5C 283.65,279.074 282.484,278.741 280,281.5C 278.049,279.863 278.216,278.363 280.5,277C 279.833,276.667 279.167,276.333 278.5,276C 279.623,274.956 280.956,274.29 282.5,274C 270.384,273.16 258.384,271.493 246.5,269C 247.328,268.085 248.328,267.419 249.5,267C 248.5,266.667 247.5,266.333 246.5,266C 249.5,265.667 252.5,265.333 255.5,265C 256.056,264.617 256.389,264.117 256.5,263.5 Z" />
  </g>
  <g>
    <path style="opacity:1" fill="#1a2530"
      d="M 323.5,271.5 C 322.928,270.027 322.095,268.693 321,267.5C 315.084,270.874 309.25,274.374 303.5,278C 302.549,278.718 302.383,279.551 303,280.5C 311.387,294.219 320.554,307.385 330.5,320C 339.945,322.611 345.612,319.111 347.5,309.5C 347.69,307.358 347.856,305.025 348,302.5C 350.319,303.498 352.486,304.498 354.5,305.5C 355.722,307.286 356.389,309.286 356.5,311.5C 353.907,321.321 347.573,327.321 337.5,329.5C 332.436,330.091 327.769,329.091 323.5,326.5C 312.83,310.987 302.33,295.321 292,279.5C 291.333,278.167 291.333,276.833 292,275.5C 293.802,274.211 294.969,272.544 295.5,270.5C 296.801,269.36 297.968,268.027 299,266.5C 299.308,267.308 299.808,267.975 300.5,268.5C 302.759,268.216 304.426,267.216 305.5,265.5C 306.167,265.167 306.833,264.833 307.5,264.5C 310.445,265.643 311.445,264.643 310.5,261.5C 311.736,260.643 313.069,259.977 314.5,259.5C 318.526,260.171 322.526,261.004 326.5,262C 326.833,262.333 327.167,262.667 327.5,263C 324.833,263.667 324.833,264.333 327.5,265C 325.122,265.974 325.456,266.641 328.5,267C 325.972,268.017 325.972,269.184 328.5,270.5C 326.955,271.452 325.288,271.785 323.5,271.5 Z" />
  </g>
  <g>
    <path style="opacity:1" fill="#212f39"
      d="M 164.5,298.5 C 188.041,297.207 198.875,308.207 197,331.5C 191.398,345.088 181.231,351.255 166.5,350C 148.943,343.003 143.11,330.503 149,312.5C 152.468,305.861 157.635,301.194 164.5,298.5 Z" />
  </g>
  <g>
    <path style="opacity:1" fill="#f3f6f7"
      d="M 167.5,305.5 C 178.559,305.116 186.059,310.116 190,320.5C 190.955,331.09 186.455,338.256 176.5,342C 160.354,342.517 153.187,334.684 155,318.5C 157.353,312.315 161.52,307.982 167.5,305.5 Z" />
  </g>
  <g>
    <path style="opacity:1" fill="#202e37"
      d="M 246.5,336.5 C 244.139,334.797 244.139,333.13 246.5,331.5C 244.851,329.078 242.851,328.411 240.5,329.5C 243.423,320.532 240.757,314.032 232.5,310C 221.736,309.441 217.236,314.608 219,325.5C 220.726,331.393 224.559,335.06 230.5,336.5C 231.263,337.268 232.263,337.768 233.5,338C 232.833,338.333 232.167,338.667 231.5,339C 234.174,339.67 236.507,340.837 238.5,342.5C 223.616,346.121 214.45,340.454 211,325.5C 210.333,322.833 210.333,320.167 211,317.5C 214.283,305.441 222.117,300.275 234.5,302C 244.109,305.221 249.109,311.888 249.5,322C 249.425,327.05 248.425,331.883 246.5,336.5 Z" />
  </g>
  <g>
    <path style="opacity:1" fill="#f6f8f9"
      d="M 240.5,329.5 C 240.44,330.043 240.107,330.376 239.5,330.5C 238.019,329.52 236.685,328.353 235.5,327C 231.872,325.684 229.539,326.851 228.5,330.5C 229.973,332.395 231.64,334.061 233.5,335.5C 232.675,336.386 231.675,336.719 230.5,336.5C 224.559,335.06 220.726,331.393 219,325.5C 217.236,314.608 221.736,309.441 232.5,310C 240.757,314.032 243.423,320.532 240.5,329.5 Z" />
  </g>
  <g>
    <path style="opacity:1" fill="#d8dee1"
      d="M 323.5,326.5 C 327.769,329.091 332.436,330.091 337.5,329.5C 335.166,330.124 332.833,330.957 330.5,332C 332.704,335.723 335.371,336.223 338.5,333.5C 340.747,334.374 343.08,334.708 345.5,334.5C 344.101,335.89 342.434,336.89 340.5,337.5C 340.265,336.903 339.765,336.57 339,336.5C 336.865,337.127 334.698,337.627 332.5,338C 330.673,342.511 328.006,346.345 324.5,349.5C 321.423,347.613 318.423,345.446 315.5,343C 309.208,332.917 303.041,322.75 297,312.5C 289.424,304.329 282.591,295.662 276.5,286.5C 279.423,285.547 282.256,285.214 285,285.5C 286.074,288.156 286.907,290.489 287.5,292.5C 290.762,294.42 293.762,296.754 296.5,299.5C 297.429,300.689 297.762,302.022 297.5,303.5C 298.822,303.67 299.989,303.337 301,302.5C 301.689,303.357 302.522,304.023 303.5,304.5C 304.452,305.533 304.452,306.7 303.5,308C 307.037,311.604 310.204,315.438 313,319.5C 313.423,318.044 314.256,317.544 315.5,318C 315.167,318.333 314.833,318.667 314.5,319C 316.396,322.486 318.229,325.32 320,327.5C 321.145,327.381 322.312,327.048 323.5,326.5 Z" />
  </g>
  <g>
    <path style="opacity:1" fill="#1b2833"
      d="M 179.5,313.5 C 184.372,313.533 186.539,315.866 186,320.5C 180.455,324.378 175.955,329.211 172.5,335C 171.167,335.667 169.833,335.667 168.5,335C 165.333,331.833 162.167,328.667 159,325.5C 158.696,322.287 160.196,320.287 163.5,319.5C 165.81,320.795 168.143,322.129 170.5,323.5C 174.205,320.795 177.205,317.462 179.5,313.5 Z" />
  </g>
  <g>
    <path style="opacity:1" fill="#1d2b36"
      d="M 267.5,302.5 C 270.247,302.187 272.914,302.52 275.5,303.5C 280.454,315.738 285.121,328.071 289.5,340.5C 287.646,344.098 285.146,344.432 282,341.5C 280.864,338.904 280.031,336.237 279.5,333.5C 274.156,333.334 268.823,333.501 263.5,334C 261.765,336.637 260.432,339.47 259.5,342.5C 252.949,344.782 251.115,342.782 254,336.5C 258.802,325.257 263.302,313.924 267.5,302.5 Z" />
  </g>
  <g>
    <path style="opacity:1" fill="#edf2f4"
      d="M 270.5,313.5 C 271.497,313.47 272.164,313.97 272.5,315C 273.994,318.812 275.327,322.645 276.5,326.5C 273.167,326.5 269.833,326.5 266.5,326.5C 268.114,322.268 269.447,317.934 270.5,313.5 Z" />
  </g>
  <g>
    <path style="opacity:1" fill="#12202e"
      d="M 240.5,329.5 C 242.851,328.411 244.851,329.078 246.5,331.5C 244.139,333.13 244.139,334.797 246.5,336.5C 247.456,337.659 248.456,338.826 249.5,340C 246.699,345.733 243.032,346.566 238.5,342.5C 236.507,340.837 234.174,339.67 231.5,339C 232.167,338.667 232.833,338.333 233.5,338C 232.263,337.768 231.263,337.268 230.5,336.5C 231.675,336.719 232.675,336.386 233.5,335.5C 231.64,334.061 229.973,332.395 228.5,330.5C 229.539,326.851 231.872,325.684 235.5,327C 236.685,328.353 238.019,329.52 239.5,330.5C 240.107,330.376 240.44,330.043 240.5,329.5 Z" />
  </g>
  <g>
    <path style="opacity:1" fill="#1a2632"
      d="M 340.5,337.5 C 338.145,349.568 331.479,358.235 320.5,363.5C 316.089,363.861 311.756,364.361 307.5,365C 308.833,364.333 310.167,363.667 311.5,363C 311.167,362.667 310.833,362.333 310.5,362C 311.649,360.256 312.983,360.089 314.5,361.5C 315.981,359.481 317.314,357.481 318.5,355.5C 320.833,353.833 322.833,351.833 324.5,349.5C 328.006,346.345 330.673,342.511 332.5,338C 334.698,337.627 336.865,337.127 339,336.5C 339.765,336.57 340.265,336.903 340.5,337.5 Z" />
  </g>
  <g>
    <path style="opacity:0.125" fill="#8c9da6"
      d="M 287.5,417.5 C 284.615,417.194 281.948,417.527 279.5,418.5C 246.5,418.5 213.5,418.5 180.5,418.5C 183.421,417.281 186.588,416.614 190,416.5C 222.42,416.286 254.92,416.619 287.5,417.5 Z" />
  </g>
  <g>
    <path style="opacity:0.859" fill="#c1d4dd"
      d="M 279.5,418.5 C 281.948,417.527 284.615,417.194 287.5,417.5C 288.833,417.5 290.167,417.5 291.5,417.5C 291.768,419.099 291.434,420.432 290.5,421.5C 289.942,420.21 288.942,419.377 287.5,419C 284.854,418.503 282.187,418.336 279.5,418.5 Z" />
  </g>
  <g>
    <path style="opacity:1" fill="#192734"
      d="M 180.5,418.5 C 213.5,418.5 246.5,418.5 279.5,418.5C 282.187,418.336 284.854,418.503 287.5,419C 288.942,419.377 289.942,420.21 290.5,421.5C 290.586,422.496 290.252,423.329 289.5,424C 286.956,425.092 284.289,425.759 281.5,426C 247.833,426.667 214.167,426.667 180.5,426C 176.561,425.023 175.561,422.689 177.5,419C 178.448,418.517 179.448,418.351 180.5,418.5 Z" />
  </g>
</svg>