<svg xmlns="http://www.w3.org/2000/svg" aria-hidden="true"
  style="position:absolute;width:0;height:0;overflow:hidden">
  <defs>
    <symbol id="icon-qa_test" viewBox="0 0 32 32">
      <path
        d="m31.731.281.003.297.141.003.141.006-.125-.022-.125-.019-.038-.563.003.297zM11.344.594l-.484.019.491.006c.3.003.497-.006.509-.025.009-.019.009-.028-.006-.025a11.62 11.62 0 0 1-.509.025zM23.844 1.541c0 .041-.041.053-.209.063l-.212.009.212.006c.166.006.216-.003.231-.041.009-.028.009-.059-.003-.069-.009-.012-.019.003-.019.031zM12.844 1.559c0 .019-.053.038-.116.044l-.119.012.134.003c.097.006.131-.006.131-.041 0-.025-.006-.047-.016-.047s-.016.012-.016.028zM1.841 1.603a.62.62 0 0 0 .225.016l.2-.009-.225-.016c-.125-.009-.212-.003-.2.009zM2.719 1.594l-.109.022.119.006c.063 0 .116-.012.116-.028 0-.019-.003-.028-.006-.028a1.227 1.227 0 0 1-.119.028zM25.719 1.594l-.109.022.119.006c.063 0 .116-.012.116-.028 0-.019-.003-.028-.006-.028a1.227 1.227 0 0 1-.119.028zM8.825 2.422l.003.156.281.006-.262-.025-.025-.294.003.156zM.844 2.566c0 .016.034.028.078.028S1 2.588 1 2.581c0-.006-.034-.019-.078-.025-.044-.009-.078-.003-.078.009zM3.719 2.559l-.109.022.1.016c.069.013.106.003.116-.025.009-.022.013-.038.009-.038a.666.666 0 0 1-.116.025zM.844 3.525c0 .022-.031.038-.069.041-.069 0-.069.003-.009.025.063.025.137-.041.097-.081-.009-.013-.019-.003-.019.016zM4.8 3.55c-.019.047-.072.05-.513.034-.347-.009-.413-.009-.225.009.478.044.741.038.763-.019.013-.028.016-.059.006-.066-.006-.006-.019.013-.031.041zM12.344 3.563l-.516.019.525.006c.331.003.522-.006.522-.025s-.003-.028-.006-.025c-.006.003-.241.016-.525.025zM18.031 3.594c.113.013.344.022.516.022h.313l-.281-.025a5.879 5.879 0 0 0-.516-.019h-.234l.203.022zM25.625 3.575c0 .006.05.019.109.025s.109 0 .109-.013-.05-.025-.109-.025-.109.006-.109.013zM27.656 3.575c0 .006.034.019.078.025.044.009.078.003.078-.009 0-.016-.034-.028-.078-.028s-.078.006-.078.013zM31.725 4.225l-.006.369h.141c.078 0 .141-.016.141-.031 0-.019-.056-.031-.125-.031h-.122l-.012-.338-.009-.334-.006.366zM.834 4.569c.006.016.237.025.512.025.272 0 .497-.009.497-.025 0-.013-.231-.022-.512-.022s-.506.009-.497.022zM5.781 4.566c0 .016.016.022.031.013.019-.009.031-.025.031-.034 0-.006-.013-.013-.031-.013-.016 0-.031.016-.031.034zM7.703 4.559l-.125.022.134.016c.094.009.131.003.131-.025 0-.022-.003-.037-.006-.037a1.001 1.001 0 0 1-.134.025zM26.422 4.563l-.406.019.397.006c.238.003.403-.006.416-.025.009-.019.016-.028.009-.025s-.191.016-.416.025zM17.797 4.594c.009.016.025.031.034.031.006 0 .012-.016.012-.031 0-.019-.016-.031-.034-.031-.016 0-.022.013-.012.031zM11.831 5.547c.012.025.025.047.031.047s.012-.022.012-.047-.012-.047-.031-.047c-.016 0-.022.022-.012.047z" />
      <path
        d="M13.847 5.553c-.003.072-.006.072-.488.072-.266 0-.484-.009-.484-.025 0-.013-.15-.016-.334-.006a4.073 4.073 0 0 1-.484-.003c-.084-.009-.15-.006-.15.009 0 .013-.447.022-.991.019l-.994-.003-.309.112c-.637.234-1.069.584-1.472 1.194-.166.253-.247.416-.306.612-.047.147-.084.278-.084.291s-.05.075-.109.134c-.084.084-.128.106-.188.097-.059-.012-.078-.003-.078.034 0 .031-.034.1-.075.156s-.091.144-.109.194l-.069.184c-.031.078-.053.094-.141.094-.103 0-.106-.003-.112-.134l-.003-.131-.037.313-.141.019c-.131.019-.134.019-.028.022.063.003.112.022.116.044s.016.206.025.406c.016.262.009.369-.016.369-.019 0-.034.022-.034.05 0 .044-.025.05-.162.031-.091-.012-.153-.012-.141.003a.733.733 0 0 0 .203.041l.178.016.009.475.009.478-1.05.012.478.009c.45.009.475.016.475.072 0 .034.016.063.034.063.022 0 .028.134.022.409l-.009.412-.256-.019c-.15-.012-.266-.006-.275.012-.013.016.1.028.278.028h.3v.397c.003.297.009.384.034.344a.55.55 0 0 0 .022-.228c-.006-.134 0-.169.037-.169.05 0 .125.303.125.503 0 .097-.003.097-.109.081-.066-.009-.103-.006-.094.012.013.016-.013.028-.05.028-.063 0-.066.006-.025.037.037.034.044.122.034.5l-.013.459-.159.012-.162.009.359.012.006.397.006.4.009-.384c.006-.219.025-.381.041-.381.019 0 .031.022.031.05s.034.078.078.113c.044.034.072.075.059.091-.025.044.047.331.116.472.075.144.075.15-.003.15-.034 0-.063.012-.063.031 0 .047-.219.037-.219-.009-.003-.022-.016-.019-.044.016-.025.037-.097.056-.225.066l-.184.009.359.012v.466c0 .344-.009.472-.037.481-.025.009-.019.019.016.019.047.003.053.041.059.275l.006.275.009-.259.013-.256h.112c.144 0 .194.066.197.259 0 .084.016.178.031.209.044.084.091.438.056.438-.016 0-.019.012-.009.031.009.016.119.031.241.031h.222l-.019.303a7.953 7.953 0 0 0-.022.484v.181h-.847l.009-.494.009-.491-.375.031.319.019.028.944c.022.691.031.831.037.528.009-.406.009-.413.078-.413.066 0 .078.028.131.241.063.272.078.538.031.531-.016-.003-.028.012-.025.031.006.028-.028.041-.1.041-.172 0-.191.034-.172.341l.016.269.016-.281c.013-.241.022-.281.072-.278l.412.006.359.006v.497c0 .444-.022.594-.075.509-.009-.016-.056-.025-.103-.019l-.359.028-.272.025-.025-.244-.003.116-.006.119-.428.006c-.425.006-.428.006-.088.016.531.012.481-.034.494.488l.009.444.006-.462.006-.459h.844v.969l-.444-.016c-.366-.016-.434-.012-.384.019.034.022.081.059.103.081s.056.041.072.041c.016 0 .028.038.028.084.003.05.028.166.063.259s.059.197.063.225c0 .031.016.056.034.056s.028.044.022.103c-.009.094-.016.1-.166.119-.097.012.013.019.284.022l.441.006.022.288c.009.156.019.366.019.466v.178l-.206.022a8.425 8.425 0 0 1-.744.009c-.294-.009-.428-.006-.3.003l.234.019.037.219.006-.103c.003-.066.019-.1.05-.1.025 0 .047.012.047.031 0 .016.028.031.063.031.063 0 .112.134.119.309a.65.65 0 0 0 .044.172l.037.094.022-.075c.019-.063.022-.05.025.053.003.097.016.134.05.134.025 0 .047.028.047.063s-.016.063-.034.063c-.016 0-.025.012-.013.031.009.016-.066.034-.178.041-.109.006-.006.012.228.016l.428.006.022.381c.013.212.016.434.009.494l-.009.109-.984.019v-.503c0-.456-.006-.5-.053-.497-.034 0-.041.009-.016.019.053.022.053.947 0 .947-.028 0-.025.012.006.031.025.016.269.031.541.031h.491l.006.209.006.212.016-.219c.019-.197.025-.219.097-.238.075-.022.075-.022.009-.025s-.072-.019-.072-.209v-.206l.134.022a.737.737 0 0 1 .181.05.076.076 0 0 0 .088-.012c.025-.025.044-.028.059-.003.047.072.169.109.291.091.091-.016.122-.009.125.022 0 .022.012.012.025-.022.019-.044.028-.016.028.1l.003.163-.162.012-.162.009.162.006c.156.006.159.009.191.122.028.106.031.109.034.031l.003-.084h.325c.178 0 .387-.009.466-.019l.144-.022.012.231.009.231.006-.244.006-.241h.484c.481 0 .484 0 .484.069.003.066.006.069.044.019.031-.044.1-.056.334-.066l.294-.009-.641-.012v-.337c0-.519-.044-.475.5-.475s.5-.041.5.459c0 .225-.012.322-.037.331-.031.012-.031.019 0 .019.025.003.041.087.044.291l.006.291.009-.275.012-.272h.963l.012.163.009.166.006-.181.006-.178.134-.006.131-.003-.116-.012-.119-.012v-.366l.4-.003c.222-.003.425.003.453.016.041.016.053.059.053.188v.166l-.162.012-.166.009.359.012.006.256c.006.256.006.256.016.05l.012-.206.147-.019c.081-.009.291-.028.469-.038l.319-.019.003.337.006.341.025-.469c.028-.541.05-.725.094-.75.016-.012.028-.003.028.012 0 .034.116-.016.156-.063a.786.786 0 0 1 .184-.059c.137-.031.172-.031.197.003.022.034.034.034.047.003.006-.019.053-.038.103-.038.072 0 .094.019.122.1.041.137.053.456.016.494-.016.016-.113.034-.216.041l-.188.009.453.012.006.35c.003.269.009.297.016.119.012-.272.031-.375.072-.375.016 0 .037.028.047.066.019.056.041.063.15.05.072-.006.209-.044.303-.084.094-.038.216-.078.272-.084l.1-.016.012.447.009.45.006-.462.006-.459h1v1.031l.484-.012-.225-.009-.228-.012v-.994l.197-.012.194-.009-.387-.012-.009-.434-.009-.431.956-.012-.009.453c-.006.253 0 .456.016.456.012 0 .025.116.028.256 0 .144.009.209.016.15l.028-.244.016-.131h.484c.438 0 .481-.006.478-.056 0-.031-.009-.038-.019-.016-.009.031-.141.041-.497.041h-.481v-.416c0-.225-.009-.462-.019-.525l-.019-.109.181.012c.103.006.319-.003.478-.022.163-.019.303-.028.309-.019.006.006.022.234.034.506.016.272.028.444.028.381.012-.244.047-.403.087-.403.025 0 .044-.016.044-.031 0-.019.056-.031.125-.031s.125-.016.125-.031c0-.019.028-.031.063-.031s.063-.016.063-.031c0-.019.028-.031.059-.031.034 0 .069-.012.078-.028a.24.24 0 0 1 .103-.044.208.208 0 0 0 .128-.084l.041-.069-.306.025a6.353 6.353 0 0 1-.447.028c-.128 0-.141-.006-.15-.084-.009-.069.006-.087.109-.119.066-.022.266-.109.444-.191.178-.084.337-.153.35-.153.016 0 .028.137.031.303 0 .191.012.281.025.244.016-.034.019-.194.009-.353-.016-.288-.009-.306.097-.291.012 0 .022-.012.022-.031s.075-.1.166-.184c.297-.272.547-.706.663-1.159.059-.225.059-.219-.034-.184a.976.976 0 0 1-.259.038l-.184.009-.1.222c-.125.275-.434.663-.672.837-.212.159-.488.3-.762.391-.2.066-.216.066-4.834.066-5.05 0-4.828.006-5.287-.178a2.185 2.185 0 0 1-1.312-1.368l-.084-.25V8.053l.084-.25c.147-.425.313-.688.647-1.016.322-.319.528-.444.912-.553.188-.053.431-.056 4.113-.056h3.916l.006.5.009 1.125c0 .678.009.716.178.906.156.178.241.2.909.238.328.016.925.05 1.322.075s.744.047.772.047c.047 0 .053.069.056.741.003 1.128.006 1.159.281 1.681.253.488.269.491.275.059.006-.381.044-.794.069-.775.016.009.028 0 .028-.016 0-.019-.012-.034-.031-.034s-.031-.294-.031-.822c0-.45-.012-.872-.028-.938a.969.969 0 0 0-.2-.313c-.266-.3-.337-.372-.531-.534-.097-.081-.169-.162-.159-.181.012-.019.006-.025-.012-.013-.038.022-.203-.116-.637-.531l-.303-.291.147-.013.147-.009-.328-.013-.006-.275-.006-.272-.009.256c-.006.144-.022.259-.034.259-.044 0-.509-.487-.488-.509.012-.013.003-.022-.022-.022-.028 0-.141-.088-.256-.197-.147-.134-.209-.216-.212-.272 0-.072-.003-.072-.025-.016s-.053.034-.269-.184c-.178-.178-.269-.247-.325-.247-.044-.003-.366.009-.712.022-.459.019-.634.019-.634-.006 0-.019-.019-.028-.038-.022a7.422 7.422 0 0 1-.5.028c-.438.013-.463.009-.463-.047 0-.031-.012-.059-.028-.059s-.022.028-.012.063c.016.059 0 .063-.472.063-.359 0-.488-.009-.488-.037s-.009-.028-.037 0c-.025.025-.181.037-.497.037-.453 0-.463 0-.475-.072l-.012-.069-.006.069zm5.575 1.916c.431.406.837.787.906.85l.122.113-.212.022a9.839 9.839 0 0 1-.869.009c-.591-.012-.659-.022-.738-.078a.358.358 0 0 1-.109-.169c-.025-.109 0-1.331.031-1.456.009-.044.031-.063.053-.05.019.013.387.353.816.759zM7.353 8.781h.334v.969h-.388c-.216 0-.397-.012-.409-.028-.022-.041-.041-.938-.019-.959.009-.009.047-.009.081 0s.213.019.4.019zM7 10.397c0 .05.013.109.028.131.041.063-.016.159-.091.159-.053 0-.063-.022-.063-.141 0-.131.044-.231.103-.234.013 0 .022.037.022.084zm.688.806v.484h-.844v-.463c0-.256.009-.475.022-.484.009-.012.2-.022.422-.022h.4v.484zm-.21 1.513.209.003v.969h-.853l.022-.241c.009-.131.019-.356.019-.503v-.262l.197.016c.106.012.287.019.406.019zm.222 2.118c.009.066.019.275.019.466 0 .259-.013.356-.044.384-.028.025-.172.034-.428.028l-.388-.009-.009-.328c-.006-.181 0-.403.009-.494l.019-.162h.8l.022.116zm.491 7.641c.069.1.109.181.094.181s-.037-.012-.05-.028c-.009-.019-.056-.019-.119 0a.73.73 0 0 1-.172.028c-.072 0-.072-.003-.063-.356l.006-.359.091.175c.05.097.144.259.212.359zm.397.478c.216.225.225.241.225.387 0 .084.009.197.019.25l.022.1-.994-.019-.009-.478-.009-.475h.522l.225.234zm.381.319c.041.028.147.094.231.141.088.05.137.087.113.081-.113-.016-.206.05-.191.137 0 .016-.053.025-.119.025h-.122l-.012-.219c-.006-.122-.003-.219.006-.219s.05.025.094.053zm-1.197.344c-.009.031-.016.012-.016-.038 0-.053.006-.075.016-.056a.247.247 0 0 1 0 .094zm2.069.684c.003.453.053.419-.572.419h-.434l.022-.191c.009-.106.019-.331.019-.5v-.309h.453c.341 0 .453-.009.456-.041.016-.137.056.309.056.622zm.622-.612c.338 0 .35.003.35.069s-.006.066-.334.044c-.184-.009-.341-.031-.35-.047a.437.437 0 0 0-.144-.059l-.125-.038.125.016c.069.009.284.016.478.016zm8.35.031c0 .063-.016.066-.484.059-.391-.003-.484-.012-.484-.047s.097-.044.478-.053c.259-.003.478-.012.484-.016.003-.003.006.022.006.056zm-7 .072v.087l-.484-.006-.484-.003v-.166h.969v.087zm1.031.397c.009.266.012.494.006.506-.006.016-.228.025-.494.025h-.481v-.994l.241-.003a1.11 1.11 0 0 0 .256-.022c.009-.006.116-.009.238-.006l.219.009.016.484zm.969-.469c0 .019-.178.031-.469.031s-.469-.012-.469-.031.178-.031.469-.031.469.012.469.031zm1.025.49.006.509h-.969v-.103c0-.053-.009-.288-.019-.516l-.019-.416.991.019.009.506zm.975-.471c0 .041-.063.047-.469.041-.372-.003-.469-.012-.469-.047s.094-.044.469-.044c.403 0 .469.006.469.05zm1.012-.004c.009.028.019.256.019.503v.45h-.959l-.019-.122a9.443 9.443 0 0 1-.019-.497l-.006-.375.481-.003c.419-.006.484 0 .503.044zm.988.035v.081l-.225-.019c-.347-.028-.616-.031-.641-.009-.038.041-.066.022-.078-.056l-.016-.078h.959v.081zm-7.004.628.003.291h-.938v-.197c0-.188.05-.334.084-.25.016.047.166.056.166.012 0-.016.05-.038.109-.047.075-.016.109-.038.109-.075 0-.044.006-.047.031-.006.022.038.037.034.084-.022.044-.047.088-.063.175-.056.109.009.116.006.119-.087.009-.219.056.147.056.438zm6.891-.347c.028.009.05.047.05.081 0 .031.012.053.028.044.028-.019.069.444.044.488-.006.016-.222.025-.481.025h-.466V24.5c0-.166.006-.188.063-.188.038 0 .063-.022.063-.05 0-.041.022-.047.125-.028.103.016.125.012.125-.028 0-.053.063-.075.266-.091.109-.009.106-.012-.047-.022l-.172-.009.172-.022c.094-.012.175-.022.178-.025s.025.003.053.012zm-3.972.191a.171.171 0 0 1-.078 0c-.022-.009-.006-.016.037-.016s.059.006.041.016zM8.688 5.544c0 .006.034.019.078.025.044.009.078.003.078-.009 0-.016-.034-.028-.078-.028s-.078.006-.078.013z" />
      <path
        d="M10.897 7.019c-.403.097-.891.391-1.141.694-.447.534-.616 1.059-.541 1.694.053.488.219.825.597 1.231.484.516 1.081.741 1.787.672a1.67 1.67 0 0 0 .809-.294c.75-.484 1.169-1.241 1.109-2.006-.031-.438-.262-.997-.509-1.244a4.481 4.481 0 0 0-.894-.628 2.05 2.05 0 0 0-1.219-.119zm.916.544c.156.056.622.359.644.416.006.022-.281.341-.641.706l-.656.672-.291-.287c-.341-.334-.403-.353-.575-.181-.1.1-.122.156-.106.269.003.025.203.247.447.491.466.469.522.503.669.4.037-.025.241-.241.45-.478.659-.734 1.069-1.166 1.091-1.141.059.066.131.366.147.603.031.488-.131.891-.512 1.275-.659.659-1.584.659-2.234 0-.772-.787-.656-1.934.259-2.559.228-.153.375-.213.625-.244s.5-.009.684.059zM14.334 7.681c-.119.125-.106.244.037.341.106.072.109.072 1.438.078 1.744.006 1.631.012 1.681-.056.059-.081.05-.275-.019-.359l-.059-.075-2.991-.019-.088.091zM.841 7.853c.016.016.088.022.163.016l.137-.009-.162-.016c-.091-.009-.15-.003-.138.009zM14.363 8.75c-.103.125-.103.162.009.287l.091.103.887.009c.853.009.906.009 1.287-.069.222-.047.413-.091.428-.1.047-.028.031-.159-.031-.234l-.059-.075-2.531-.019-.081.097zM17.219 9.347c-1.113.116-2.156.8-2.828 1.856-.556.878-.713 2.222-.372 3.231.391 1.159 1.328 2.097 2.434 2.438.434.131.709.169 1.234.172.378.003.497-.009.716-.069.144-.041.262-.066.269-.063l.097.181c.053.094.113.203.137.238.038.063.031.081-.087.216-.087.1-.131.178-.131.238 0 .063.262.484.938 1.494.516.772 1.003 1.475 1.081 1.563.188.209.4.294.762.297.238.003.288-.006.484-.1.434-.206.769-.547.881-.9.078-.247.1-.191-.584-1.356-.178-.3-.472-.772-.656-1.047a15.279 15.279 0 0 1-.469-.75c-.209-.387-.294-.484-.431-.484-.066 0-.163.028-.219.063s-.113.063-.125.063c-.016 0-.094-.119-.175-.262l-.147-.262.175-.166c.356-.338.666-.806.863-1.309.203-.525.25-.759.269-1.344.019-.616-.028-.95-.197-1.384-.231-.606-.525-1.072-.925-1.466-.684-.681-1.294-.988-2.159-1.084a3.141 3.141 0 0 0-.834 0zm1.234.622c.712.225 1.459.787 1.841 1.381.153.244.378.8.441 1.103.072.344.097.928.047 1.222-.119.75-.519 1.516-1.034 1.997a3.804 3.804 0 0 1-1.466.809c-.281.075-.819.1-1.116.05-.75-.119-1.334-.441-1.922-1.059a2.181 2.181 0 0 1-.456-.65c-.231-.456-.306-.675-.369-1.081a3.848 3.848 0 0 1 .225-1.934c.219-.525.803-1.188 1.306-1.484a3.37 3.37 0 0 1 .972-.397c.341-.075 1.238-.05 1.531.044zm1.25 6.709c.106.194.113.216.063.244a3.128 3.128 0 0 0-.184.116.837.837 0 0 1-.147.087c-.012 0-.072-.087-.137-.194-.106-.178-.109-.2-.063-.228.031-.016.122-.075.2-.131.078-.053.147-.1.15-.1 0-.003.056.091.119.206zm.975.625c.047.084.241.387.434.681.191.291.531.844.759 1.228.381.641.416.706.394.806-.028.15-.231.366-.438.466-.337.159-.637.081-.863-.225-.363-.491-1.559-2.306-1.559-2.366 0-.019.222-.166.494-.328l.584-.353c.053-.031.097-.056.1-.056s.047.066.094.147z" />
      <path
        d="M17.047 10.222c-.703.137-1.488.637-1.859 1.184-.606.891-.722 2.069-.3 2.984.228.491.512.856.953 1.209.397.319.847.497 1.403.553.953.1 1.766-.209 2.441-.922.534-.563.803-1.178.837-1.934.028-.594-.078-1.097-.322-1.544a3.116 3.116 0 0 0-1.762-1.459c-.234-.075-.325-.084-.75-.094a4.677 4.677 0 0 0-.641.022zm1.231.547c.488.113 1.122.616 1.406 1.122.197.347.316.841.316 1.313 0 .4-.038.578-.194.934-.147.334-.25.491-.519.772-.728.775-1.819.991-2.706.541-.403-.206-.688-.459-1-.9-.284-.4-.422-.856-.425-1.403 0-.588.162-1.075.509-1.506a2.486 2.486 0 0 1 1.631-.934c.166-.025.775.012.981.063z" />
      <path
        d="M16.931 11.106c-.55.197-1.338 1.053-1.338 1.459 0 .106.016.131.103.184a.397.397 0 0 0 .166.063c.088 0 .206-.134.341-.391.203-.384.575-.706.981-.856.106-.037.203-.091.212-.116.025-.066-.081-.322-.147-.356-.078-.041-.178-.037-.319.012zM18.731 12.063c-.059.022-.238.209-.806.841-.103.113-.319.344-.481.512l-.294.306-.278-.269c-.288-.278-.337-.3-.519-.231-.147.053-.228.153-.228.272 0 .094.044.15.456.547.25.244.481.456.512.472s.091.019.131.009c.084-.022.391-.328.781-.775.141-.166.441-.494.659-.731.222-.234.425-.475.45-.534.047-.097.047-.116 0-.216-.078-.159-.253-.256-.384-.203zM9.469 11.966c-.047.091-.044 1.431.006 1.459.063.041 1.375.016 1.425-.028.041-.031.044-.144.025-.738-.009-.384-.028-.709-.037-.725s-.325-.028-.7-.028c-.647 0-.688.003-.719.059zm1 .553c0 .106-.009.256-.019.338l-.022.144-.269-.006-.269-.009-.019-.656h.3l.297-.003v.194zM11.438 12.6c-.081.134-.078.162.028.281l.091.103h1.706l.037-.219c.019-.122.028-.228.022-.244-.006-.012-.419-.022-.919-.022H11.5l-.063.1zM22.844 12.703c0 .028.019.037.047.028.025-.012.047-.022.047-.028s-.022-.016-.047-.028c-.028-.009-.047 0-.047.028zM11.406 13.912c-.081.134-.078.162.025.275l.084.094.947.022c.563.012.944.009.944-.009 0-.016-.012-.078-.028-.137s-.037-.162-.05-.228l-.019-.116h-1.841l-.063.1zM9.838 13.875c-.266.025-.338.084-.338.269 0 .209.044.225.659.216.284-.003.534-.016.553-.028.022-.012.037-.094.037-.194 0-.259-.053-.294-.412-.291a7.312 7.312 0 0 0-.5.028zM21.844 14.772c0 .041.009.044.025.019s.15-.041.413-.05l.391-.009-.413-.006c-.378-.006-.416 0-.416.047zM21.512 14.922a23.26 23.26 0 0 1-.194.375l-.131.25.028.422.031.422.1.078c.059.044.163.141.234.219l.134.137.022-.087c.012-.05.022-.297.025-.553.003-.438.006-.463.066-.475.056-.012.053-.012-.006-.019-.041 0-.072-.006-.072-.012a44.842 44.842 0 0 0-.15-.787l-.022-.094-.066.125zM9.672 15.178c-.041.041-.05.091-.041.222.009.091.031.178.053.194.047.028.769.063.853.037.047-.012.056-.047.056-.209 0-.313.022-.297-.453-.297-.35 0-.425.009-.469.053zM11.416 15.194a.245.245 0 0 0 0 .344c.072.075.097.081.494.1.231.009.819.025 1.306.031l.884.016-.078-.084a1.73 1.73 0 0 1-.178-.266l-.1-.178h-.503c-.278 0-.787-.009-1.131-.019l-.625-.022-.069.078zM11.428 16.556a.57.57 0 0 0-.116.216c0 .016.044.072.094.125l.094.097 1.95.022c1.072.012 1.966.019 1.984.012s-.066-.097-.188-.197c-.403-.328-.194-.297-2.097-.313-1.541-.012-1.678-.009-1.722.038zM5.103 16.678c.131.006.35.006.484 0 .131-.003.022-.009-.244-.009s-.375.006-.241.009zM26.775 16.709c.022.009.05.006.059-.003.012-.009-.006-.019-.041-.016-.034 0-.044.009-.019.019zM.084 16.741c.056.006.15.006.206 0 .053-.006.009-.012-.103-.012s-.156.006-.103.012zM22.816 17.459l-.003.228H22.5c-.172 0-.313.009-.313.025 0 .012.147.019.328.012.297-.012.328-.009.328.044 0 .028.006.047.012.041s0-.141-.012-.294l-.022-.281-.006.225zM2.525 17.678c.022.009.05.006.059-.003.013-.009-.006-.019-.041-.016-.034 0-.044.009-.019.019zM2.797 17.688c.009.016.025.031.034.031.006 0 .013-.016.013-.031 0-.019-.016-.031-.034-.031-.016 0-.022.012-.013.031zM6.056 17.678c.144.006.369.006.5 0 .131-.003.016-.009-.259-.009s-.384.006-.241.009zM11.406 17.775c-.122.122-.125.247-.006.356l.084.081 1.766.034c1.738.034 3.581.022 4.022-.028.147-.016.256-.047.316-.091.084-.059.091-.075.069-.178-.047-.209-.078-.212-1.341-.194-1.106.019-4.394-.022-4.653-.056-.15-.019-.166-.012-.256.075zM9.759 17.738c-.088.022-.153.181-.116.288.047.131.147.163.544.159.512-.003.512-.003.525-.241a.873.873 0 0 0 0-.194c-.537-.019-.9-.025-.953-.012zM22.853 18.078c0 .103.006.141.012.084s.006-.141 0-.188c-.006-.047-.012 0-.012.103zM3.822 18.547c0 .103.006.141.013.084s.006-.141 0-.188c-.006-.047-.013 0-.013.103zM24.819 18.563c0 .044.006.059.016.038a.171.171 0 0 0 0-.078c-.009-.019-.016-.003-.016.041zM22.803 18.712c-.019.091.028.175.081.141a1.35 1.35 0 0 1 .206-.044l.175-.022-.203.003c-.188 0-.203-.003-.194-.063.016-.1-.047-.116-.066-.016zM4.688 18.7c0 .006.034.019.078.025.044.009.078.003.078-.009 0-.016-.034-.028-.078-.028s-.078.006-.078.012zM.041 18.741a.332.332 0 0 0 .109 0c.028-.009.003-.016-.056-.016s-.084.006-.053.016zM6.463 18.741a.436.436 0 0 0 .125 0c.028-.009-.003-.016-.072-.012-.069 0-.094.006-.053.012zM2.825 19.375c0 .216.003.303.009.194a4.249 4.249 0 0 0 0-.391c-.006-.106-.009-.019-.009.197zM10.694 19.141c-.266.059-.422.137-.666.337a1.673 1.673 0 0 0-.613 1.209c-.028.488.122.9.459 1.244.341.35.722.516 1.188.512.516 0 .953-.228 1.3-.681.331-.431.428-.962.272-1.466a1.99 1.99 0 0 0-.516-.778 2.015 2.015 0 0 0-.853-.394c-.275-.038-.328-.038-.572.016zm.79.575c.259.128.497.359.603.587.119.253.134.637.037.891-.088.234-.316.484-.569.622-.181.1-.219.106-.478.106-.244 0-.306-.012-.475-.091-.262-.122-.537-.406-.631-.656a1.383 1.383 0 0 1-.047-.694c.059-.244.231-.494.459-.659.347-.256.722-.291 1.1-.106z" />
      <path
        d="M11.322 20.381c-.397.456-.344.434-.584.231-.116-.097-.228-.175-.256-.175-.063 0-.325.275-.325.341 0 .059.725.753.791.753.019 0 .128-.1.241-.225.113-.122.334-.359.494-.525.172-.181.287-.325.287-.366 0-.122-.219-.322-.353-.322-.025 0-.156.131-.294.288zM14.375 19.394a1.34 1.34 0 0 0-.731.697c-.091.194-.094.228-.097.581 0 .366.003.381.106.594.131.266.369.506.619.628.153.075.228.091.497.1.241.009.338.003.409-.034.091-.05.097-.047.241.075.084.066.166.122.188.122.056-.003.325-.209.381-.3.053-.078.053-.081-.081-.197l-.134-.116.106-.231c.103-.228.106-.247.106-.641 0-.391-.003-.413-.094-.591a1.259 1.259 0 0 0-.594-.6c-.2-.1-.266-.116-.506-.125-.203-.009-.313 0-.416.038zm.684.547c.303.153.441.403.441.809 0 .253-.05.438-.113.438-.028 0-.113-.056-.191-.125-.184-.163-.344-.175-.444-.034-.097.134-.081.197.081.344.134.119.144.137.094.166-.097.053-.456-.078-.625-.225-.35-.309-.369-.975-.034-1.288.222-.206.491-.234.791-.084zM17.163 19.413a1.754 1.754 0 0 0-.109.259c-.044.119-.116.303-.156.406a31.74 31.74 0 0 0-.256.634c-.094.244-.228.578-.3.744-.159.375-.159.481.012.522.209.05.247.022.409-.306l.147-.297h.953l.103.234c.147.334.2.391.35.391.141 0 .231-.038.256-.106.022-.053-.1-.416-.272-.831-.059-.147-.191-.469-.288-.719s-.231-.569-.297-.712l-.119-.256h-.2c-.125 0-.212.016-.234.038zm.412 1.078c.078.209.144.397.144.416s-.116.031-.313.031c-.194 0-.313-.012-.313-.031s.063-.194.141-.387a2.8 2.8 0 0 0 .141-.413c0-.109.059.003.2.384zM23.819 19.703c0 .05.006.069.016.038a.247.247 0 0 0 0-.094c-.009-.019-.016.003-.016.056zM24.816 19.738c0 .034.009.044.019.019.009-.022.006-.05-.003-.059-.009-.012-.019.006-.016.041zM3.9 19.741c.056.006.141.006.188 0s0-.012-.103-.012-.141.006-.084.012zM.116 19.772c.075.006.194.006.266 0 .075-.006.016-.012-.131-.012s-.206.006-.134.012zM24.009 19.772a.247.247 0 0 0 .094 0c.019-.009-.003-.016-.056-.016-.05 0-.069.006-.038.016zM25.816 20.706c0 .034.009.044.019.019.009-.022.006-.05-.003-.059-.009-.012-.019.006-.016.041zM1.119 20.772c.144.006.369.006.5 0 .131-.003.016-.009-.259-.009s-.384.006-.241.009zM2.916 20.772a.332.332 0 0 0 .109 0c.028-.009.003-.016-.056-.016s-.084.006-.053.016zM6.813 20.813c0 .016.016.031.031.031a.031.031 0 0 0 .031-.031c0-.019-.013-.031-.031-.031a.03.03 0 0 0-.031.031zM22.766 20.941c-.012.019-.016.038-.006.047.006.009.022-.006.031-.034.022-.053.003-.063-.025-.012zM22.6 21.137c-.103.113-.344.259-.538.331-.134.05-.206.109-.094.078.231-.066.575-.275.681-.419.094-.125.075-.122-.05.009zM23.831 21.728c.009.031.028.047.038.038s0-.034-.022-.056c-.031-.028-.034-.025-.016.019zM2.494 21.741c.072.006.184.006.25 0 .063-.006.003-.012-.134-.012s-.191.006-.116.012zM6.825 21.759a5.38 5.38 0 0 0-.006.462l.009.419.016-.462a4.59 4.59 0 0 0 .006-.459c-.003 0-.016.019-.025.041zM.181 21.772c.038.006.1.006.141 0 .037-.006.006-.012-.072-.012s-.109.006-.069.012zM24.819 21.938c0 .044.006.059.016.038a.171.171 0 0 0 0-.078c-.009-.019-.016-.003-.016.041zM21.822 23c0 .147.006.206.012.131a1.968 1.968 0 0 0 0-.266c-.006-.072-.012-.012-.012.134zM22.853 23c0 .078.006.109.012.069a.554.554 0 0 0 0-.141c-.006-.038-.012-.006-.012.072zM31.756 23c0 .044.006.059.016.038a.171.171 0 0 0 0-.078c-.009-.019-.016-.003-.016.041zM6.856 23.406c0 .163.003.231.009.147a2.452 2.452 0 0 0 0-.297c-.006-.081-.009-.012-.009.15zM31.931 23.678c.022.009.05.006.059-.003.012-.009-.006-.019-.041-.016-.034 0-.044.009-.019.019zM21.869 23.709a.171.171 0 0 0 .078 0c.019-.009.003-.016-.041-.016s-.059.006-.038.016zM.194 23.741c.116.006.313.006.438 0 .125-.003.031-.009-.209-.009s-.344.003-.228.009zM2.775 23.741c.022.009.05.006.059-.003.013-.009-.006-.019-.041-.016-.034 0-.044.009-.019.019zM4.025 23.741a.436.436 0 0 0 .125 0c.028-.009-.003-.016-.072-.012-.069 0-.094.006-.053.012zM25.166 23.741a.677.677 0 0 0 .156 0c.038-.006 0-.012-.087-.012-.084 0-.119.006-.069.012zM17.991 23.866c-.041.038-.022.072.044.072.034 0 .084.022.109.047a.196.196 0 0 0 .116.044c.069-.006.069-.006 0-.019-.044-.009-.072-.038-.072-.072 0-.05.028-.063.166-.072.122-.006.103-.012-.091-.016-.137-.003-.262.003-.272.016zM21.847 23.956c0 .034.009.044.019.019.009-.022.006-.05-.003-.059-.009-.012-.019.006-.016.041zM.819 24.563c0 .044.006.059.016.038a.171.171 0 0 0 0-.078c-.009-.019-.016-.003-.016.041zM11.65 24.709a.171.171 0 0 0 .078 0c.019-.009.003-.016-.041-.016s-.059.006-.037.016zM15.009 24.709a.677.677 0 0 0 .156 0c.037-.006 0-.012-.088-.012-.084 0-.119.006-.069.012zM18.556 24.709c.038.006.1.006.141 0 .038-.006.006-.012-.072-.012s-.109.006-.069.012zM21.853 25.234c0 .084.006.119.012.069a.677.677 0 0 0 0-.156c-.006-.038-.012 0-.012.087zM7.816 25.3c0 .034.009.044.019.019.009-.022.006-.05-.003-.059-.009-.012-.019.006-.016.041zM11.572 25.709a.824.824 0 0 0 .172 0c.047-.006.006-.012-.088-.012s-.134.006-.084.012zM26.188 25.706c.181.022.656.025.656.003 0-.012-.166-.019-.366-.019-.203.003-.334.009-.291.016zM4.025 25.741c.088.006.237.006.328 0 .088-.006.016-.009-.166-.009s-.253.003-.162.009zM5.994 25.741c.072.006.191.006.266 0 .072-.006.013-.012-.134-.012s-.206.006-.131.012zM8.041 25.741a.677.677 0 0 0 .156 0c.037-.006 0-.012-.088-.012-.084 0-.119.006-.069.012zM9.869 25.741a.171.171 0 0 0 .078 0c.019-.009.003-.016-.041-.016s-.059.006-.037.016zM10.025 25.741a.171.171 0 0 0 .078 0c.019-.009.003-.016-.041-.016s-.059.006-.037.016zM13.056 25.741c.037.006.1.006.141 0 .037-.006.006-.012-.072-.012s-.109.006-.069.012zM14.916 25.741a.677.677 0 0 0 .156 0c.037-.006 0-.012-.088-.012-.084 0-.119.006-.069.012zM23.181 25.741c.038.006.1.006.141 0 .038-.006.006-.012-.072-.012s-.109.006-.069.012zM23.525 25.741a.171.171 0 0 0 .078 0c.019-.009.003-.016-.041-.016s-.059.006-.038.016zM25.056 25.741c.038.006.1.006.141 0 .038-.006.006-.012-.072-.012s-.109.006-.069.012zM27.916 25.741c.063.006.169.006.234 0 .063-.006.009-.012-.119-.012s-.181.006-.116.012zM12.103 26.709c.15.006.391.006.531 0 .141-.003.019-.009-.275-.009-.291 0-.406.006-.256.009zM13.134 26.709c.116.006.303.006.422 0 .116-.006.019-.009-.213-.009s-.328.003-.209.009zM14.666 26.709a.247.247 0 0 0 .094 0c.019-.009-.003-.016-.056-.016-.05 0-.069.006-.037.016zM15.072 26.709c.134.006.344.006.469 0 .125-.003.016-.009-.244-.009-.256 0-.359.006-.225.009z" />
      <path
        d="m15.816 26.75-.003.078h-4.338l-.081.075c-.1.094-.103.163-.009.266.109.125.372.144 1.978.144h1.447l.012.103.012.1.003-.103.006-.1h.997l.012.209.009.212.006-.212.006-.209h.969l.003.084.003.087.031-.087.031-.084h.891l.022.144c.031.244.05.231-.284.234-.306.006-.306.006.131.034.241.012.516.022.609.016.113-.006.072-.012-.113-.016l-.284-.006-.022-.166c-.031-.278-.034-.272.122-.272.231 0 .453-.063.559-.156.116-.106.097-.169-.078-.256-.094-.05-.203-.056-.847-.056-.678 0-.741-.003-.753-.056-.012-.05-.016-.05-.019 0s-.05.056-.5.056c-.494 0-.5 0-.512-.072-.012-.066-.012-.066-.019.009zM18.087 26.709c.122.006.328.006.453 0 .122-.003.022-.009-.228-.009s-.35.006-.225.009zM3.228 26.741c.116.006.3.006.406 0s.013-.009-.212-.009c-.222 0-.309.003-.194.009zM4.963 26.741a.436.436 0 0 0 .125 0c.028-.009-.003-.016-.072-.012-.069 0-.094.006-.053.012zM11.134 26.741a.247.247 0 0 0 .094 0c.019-.009-.003-.016-.056-.016-.05 0-.069.006-.037.016z" />
      <path
        d="M16.462 26.741a.436.436 0 0 0 .125 0c.028-.009-.003-.016-.072-.012-.069 0-.094.006-.053.012zM17.041 26.741a.677.677 0 0 0 .156 0c.038-.006 0-.012-.087-.012-.084 0-.119.006-.069.012zM17.462 26.741c.072.006.191.006.266 0 .072-.006.012-.012-.134-.012s-.206.006-.131.012zM28.9 26.741c.072.006.184.006.25 0 .063-.006.003-.012-.134-.012s-.191.006-.116.012zM31.728 27.359c0 .069.006.094.012.053a.436.436 0 0 0 0-.125c-.009-.028-.016.003-.012.072zM12.822 27.516c0 .069.006.094.012.053a.436.436 0 0 0 0-.125c-.009-.028-.016.003-.012.072zM22.847 27.706c0 .034.009.044.019.019.009-.022.006-.05-.003-.059-.009-.012-.019.006-.016.041zM.084 27.741c.056.006.15.006.206 0 .053-.006.009-.012-.103-.012s-.156.006-.103.012zM13.666 27.741a.247.247 0 0 0 .094 0c.019-.009-.003-.016-.056-.016-.05 0-.069.006-.037.016zM15.947 27.738c.022.022.841.016.862-.006.006-.006-.188-.012-.434-.012s-.441.009-.428.019zM22.856 28.25c0 .181.003.253.009.163a2.99 2.99 0 0 0 0-.328c-.006-.087-.009-.016-.009.166zM10.463 28.678a.171.171 0 0 0 .078 0c.019-.009.003-.016-.041-.016s-.059.006-.037.016zM11.828 28.688c-.009.016-.003.031.012.031.019 0 .034-.016.034-.031 0-.019-.006-.031-.012-.031-.009 0-.025.012-.034.031zM28.291 28.678a.824.824 0 0 0 .172 0c.047-.006.006-.012-.087-.012s-.134.006-.084.012zM24.828 28.719c.009.016.025.031.034.031.006 0 .012-.016.012-.031 0-.019-.016-.031-.034-.031-.016 0-.022.012-.012.031zM31.731 29.313c0 .181.003.253.009.163a2.99 2.99 0 0 0 0-.328c-.006-.087-.009-.016-.009.166zM1.125 29.666c.028.025.719.056.719.031 0-.012-.166-.031-.369-.034-.2-.006-.359-.006-.35.003zM2.834 29.678c-.009.016.084.022.206.016.381-.012.425-.028.109-.031-.166-.003-.309.003-.316.016zM27.781 29.694c0 .016.094.022.212.022.216-.006.194-.019-.063-.034-.084-.006-.15 0-.15.012zM4.775 29.709c.022.009.05.006.059-.003.013-.009-.006-.019-.041-.016-.034 0-.044.009-.019.019zM23.837 29.709a.171.171 0 0 0 .078 0c.019-.009.003-.016-.041-.016s-.059.006-.038.016zM26.119 29.709c.087.006.238.006.328 0 .087-.006.016-.009-.166-.009s-.253.003-.163.009zM2.819 30.438c0 .044.006.059.016.038a.171.171 0 0 0 0-.078c-.009-.019-.016-.003-.016.041zM16.85 30.641c0 .05.006.069.016.038a.247.247 0 0 0 0-.094c-.009-.019-.016.003-.016.056zM11.844 30.672c0 .025.012.047.031.047.016 0 .022-.022.012-.047-.012-.025-.025-.047-.031-.047s-.012.022-.012.047zM3.734 30.688l-.094.025.084.003c.047 0 .094-.012.103-.028.009-.019.016-.028.009-.028a.926.926 0 0 1-.103.028zM5.656 30.688l-.172.022.181.003c.1.003.178-.006.178-.025s-.003-.028-.006-.025c-.006.003-.088.012-.181.025zM6.025 30.678a.171.171 0 0 0 .078 0c.019-.009.003-.016-.041-.016s-.059.006-.037.016zM19.828 30.688c-.009.016-.003.031.012.031.019 0 .034-.016.034-.031 0-.019-.006-.031-.012-.031-.009 0-.025.012-.034.031zM24.181 30.678c.022.009.05.006.059-.003.012-.009-.006-.019-.041-.016-.034 0-.044.009-.019.019zM24.447 30.678a.824.824 0 0 0 .172 0c.047-.006.006-.012-.087-.012s-.134.006-.084.012zM27.784 30.706c0 .034.009.044.019.019.009-.022.006-.05-.003-.059-.009-.012-.019.006-.016.041zM.084 30.709c.056.006.15.006.206 0 .053-.006.009-.012-.103-.012s-.156.006-.103.012zM23.65 30.709a.171.171 0 0 0 .078 0c.019-.009.003-.016-.041-.016s-.059.006-.038.016zM24.837 30.709a.171.171 0 0 0 .078 0c.019-.009.003-.016-.041-.016s-.059.006-.038.016zM25.65 30.709a.171.171 0 0 0 .078 0c.019-.009.003-.016-.041-.016s-.059.006-.038.016zM31.728 31.5c0 .078.006.109.012.069a.554.554 0 0 0 0-.141c-.006-.038-.012-.006-.012.072zM.084 31.647c.056.006.15.006.206 0 .053-.006.009-.012-.103-.012s-.156.006-.103.012zM2.781 31.656c0 .016.016.031.031.031a.031.031 0 0 0 .031-.031c0-.019-.013-.031-.031-.031a.03.03 0 0 0-.031.031zM3.822 31.75c0 .078.006.109.013.069a.554.554 0 0 0 0-.141c-.006-.038-.013-.006-.013.072zM7.041 31.647c.116.006.3.006.406 0s.013-.009-.213-.009c-.222 0-.309.003-.194.009zM7.813 31.656c0 .044.047.059.091.034.028-.019.022-.031-.025-.044-.037-.009-.066-.003-.066.009zM8.844 31.647c0 .016.103.022.225.016.412-.016.453-.028.113-.031-.188-.003-.338.003-.338.016zM22.831 31.672c-.009.025-.003.047.012.047.019 0 .031-.022.031-.047s-.006-.047-.012-.047-.019.022-.031.047zM25.134 31.647c.116.006.303.006.422 0 .116-.006.019-.009-.212-.009s-.328.003-.209.009zM30.756 31.688c0 .044.006.059.016.038a.171.171 0 0 0 0-.078c-.009-.019-.016-.003-.016.041zM.844 31.844l.016.172.019-.3.484.009c.266.006.481 0 .481-.012s.116-.028.259-.031c.141-.006-.087-.009-.509-.009H.828l.016.172zM11.847 31.706c0 .034.009.044.019.019.009-.022.006-.05-.003-.059-.009-.012-.019.006-.016.041zM14.088 31.678c.106.006.275.006.375 0 .097-.006.009-.009-.197-.009s-.287.003-.178.009zM15.844 31.703c0 .025.025.034.063.025.034-.009.063-.022.063-.025s-.028-.016-.063-.025c-.037-.009-.063 0-.063.025zM16.853 31.828c0 .103.006.141.012.084s.006-.141 0-.188c-.006-.047-.012 0-.012.103zM20.853 31.828c0 .103.006.141.012.084s.006-.141 0-.188c-.006-.047-.012 0-.012.103zM21.85 31.844l.006.172.009-.147.012-.147.887-.019-.922-.031.006.172zM23.009 31.678a.247.247 0 0 0 .094 0c.019-.009-.003-.016-.056-.016-.05 0-.069.006-.038.016zM23.556 31.678c.038.006.1.006.141 0 .038-.006.006-.012-.072-.012s-.109.006-.069.012zM25.819 31.719c0 .044.006.059.016.038a.171.171 0 0 0 0-.078c-.009-.019-.016-.003-.016.041zM6.181 31.709c.106.006.281.006.391 0 .106-.006.019-.009-.197-.009s-.303.003-.194.009zM10.816 31.738c0 .034.009.044.019.019.009-.022.006-.05-.003-.059-.009-.012-.019.006-.016.041zM12.844 31.716c0 .016.028.022.063.012s.063-.022.063-.028c0-.006-.028-.012-.063-.012s-.063.012-.063.028zM16.119 31.709c.072.006.184.006.25 0 .063-.006.003-.012-.134-.012s-.191.006-.116.012zM17.853 31.844c0 .094.006.134.012.087a.824.824 0 0 0 0-.172c-.006-.05-.012-.009-.012.084zM18.244 31.709c.072.006.191.006.266 0 .072-.006.012-.012-.134-.012s-.206.006-.131.012zM19.844 31.709c0 .016.144.022.319.016.584-.012.641-.025.159-.031-.262-.003-.478.003-.478.016zM31.759 31.875c0 .078.006.109.012.069a.554.554 0 0 0 0-.141c-.006-.038-.012-.006-.012.072zM15.85 31.906c0 .059.006.084.016.053a.332.332 0 0 0 0-.109c-.009-.028-.016-.003-.016.056zM23.85 31.906c0 .059.006.084.016.053a.332.332 0 0 0 0-.109c-.009-.028-.016-.003-.016.056zM19.85 31.938c0 .044.006.059.016.038a.171.171 0 0 0 0-.078c-.009-.019-.016-.003-.016.041z" />
    </symbol>
    <symbol id="icon-qa" viewBox="0 0 32 32">
      <path fill="#899ca7"
        d="M18.272 5.536c-2.729.062-5.46.084-8.192.064 1.452-.044 2.913-.087 4.384-.128 1.28.054 2.549.076 3.808.064z"
        opacity=".422" style="fill:var(--color1, #899ca7)" />
      <path fill="#1a2733"
        d="m18.272 5.536 1.024.96a.773.773 0 0 0 .448.448c.456.381.904.776 1.344 1.184.629.474.863 1.104.704 1.888l-.064 1.92-.544-.96a15.38 15.38 0 0 1-.032-1.408v-.576a28.715 28.715 0 0 1-1.856-.064h-.384a3.093 3.093 0 0 0-.64-.096 1.15 1.15 0 0 1-.288-.352c-.032-.789-.043-1.578-.032-2.368-2.656-.021-5.302 0-7.936.064-.915.265-1.502.862-1.76 1.792-.032 4.437-.043 8.875-.032 13.312-.053-4.341-.085-8.693-.096-13.056l-.064.064L8 7.776c-.049.164-.081.164-.096 0l.032-.128c.042.077.074.077.096 0a.463.463 0 0 0-.128-.16.236.236 0 0 0 .128-.128.906.906 0 0 1-.064-.224 2.974 2.974 0 0 1 1.536-1.44c.188-.061.38-.093.576-.096 2.732.02 5.463-.002 8.192-.064z"
        style="fill:var(--color2, #1a2733)" />
      <path fill="#fafbfb"
        d="M10.016 6.176h7.36V7.52h-1.024c-.662-.011-1.323 0-1.984.032-.215.13-.236.28-.064.448a23.28 23.28 0 0 0 2.944.096c.023.257.055.513.096.768.174.06.355.082.544.064a.9.9 0 0 0 .384.224l-.064.064a7.03 7.03 0 0 0-.96.096c-1.622.245-2.721 1.141-3.296 2.688a6.305 6.305 0 0 0-.16 1.536.786.786 0 0 1-.064.416c.165.103.165.199 0 .288l-.128.512a8.757 8.757 0 0 1-.256-.576l-.064-.384a2.798 2.798 0 0 1 0-1.024v-.32c-.598-.011-1.195 0-1.792.032-.171.149-.171.299 0 .448.469.032.938.043 1.408.032-.06.271-.081.548-.064.832-.47-.011-.939 0-1.408.032-.097.163-.076.302.064.416a6.45 6.45 0 0 0 1.28.064c-.019.252.003.497.064.736-.481.011-.95.043-1.408.096-.169.131-.169.269 0 .416.533.032 1.066.043 1.6.032.022.054.065.075.128.064.175.28.346.557.512.832-.747-.011-1.494 0-2.24.032-.165.136-.165.274 0 .416.938.064 1.876.085 2.816.064.153.307.387.52.704.64-.831.064-1.663.085-2.496.064a9.19 9.19 0 0 0-1.088.032c-.095.166-.073.315.064.448 1.984.032 3.968.043 5.952.032h.192l.128.128c.39.586.827 1.141 1.312 1.664a89.63 89.63 0 0 0 1.184 1.952c.187.157.379.295.576.416a1.666 1.666 0 0 1-.384.384 3.575 3.575 0 0 1-.832.352c-3.115.043-6.229.043-9.344 0-1.066-.181-1.728-.789-1.984-1.824-.011-4.437 0-8.875.032-13.312.258-.93.845-1.527 1.76-1.792z"
        style="fill:var(--color3, #fafbfb)" />
      <path fill="#6c7982" d="M19.296 6.496c.171.128.32.277.448.448a.773.773 0 0 1-.448-.448z"
        opacity=".835" style="fill:var(--color4, #6c7982)" />
      <path fill="#f3f7f8"
        d="M18.528 6.688a68.3 68.3 0 0 1 1.856 1.696c-.597.043-1.195.043-1.792 0a.602.602 0 0 1-.096-.16 6.359 6.359 0 0 1 .032-1.536z"
        style="fill:var(--color5, #f3f7f8)" />
      <path fill="#1d2c37"
        d="M7.968 7.136a.906.906 0 0 0 .064.224.236.236 0 0 1-.128.128.463.463 0 0 1 .128.16c-.022.077-.054.077-.096 0l-.032.128c.015.164.047.164.096 0l.064.512.064-.064c.011 4.363.043 8.715.096 13.056.257 1.035.918 1.643 1.984 1.824 3.115.043 6.229.043 9.344 0 .294-.083.571-.2.832-.352a4.83 4.83 0 0 1-.256.384c-.097-.09-.182-.08-.256.032l.064.064-.256.128c.272-.041.55-.073.832-.096a3.23 3.23 0 0 1-1.024.352c-3.179.043-6.357.043-9.536 0-1.256-.296-2.013-1.075-2.272-2.336a686.874 686.874 0 0 1 0-13.312c.041-.304.137-.581.288-.832z"
        style="fill:var(--color6, #1d2c37)" />
      <path fill="#293641"
        d="M16.352 7.52c.351.053.714.085 1.088.096.07.132.081.271.032.416a.279.279 0 0 1-.224.064A23.28 23.28 0 0 1 14.304 8c-.172-.168-.151-.318.064-.448a30.522 30.522 0 0 1 1.984-.032z"
        style="fill:var(--color7, #293641)" />
      <path fill="#c2cdd3"
        d="M10.016 6.176c2.634-.064 5.28-.085 7.936-.064-.011.79 0 1.579.032 2.368.072.136.168.253.288.352.226.011.439.043.64.096-.358.076-.7.076-1.024 0a1.277 1.277 0 0 1-.544-.064 11.03 11.03 0 0 1-.096-.768.279.279 0 0 0 .224-.064.507.507 0 0 0-.032-.416 9.073 9.073 0 0 1-1.088-.096h1.024V6.176h-7.36z"
        style="fill:var(--color8, #c2cdd3)" />
      <path fill="#28333e"
        d="M14.368 8.608c.854-.011 1.707 0 2.56.032.13.089.151.196.064.32-.846.156-1.7.199-2.56.128-.233-.134-.254-.294-.064-.48z"
        style="fill:var(--color9, #28333e)" />
      <path fill="#f4f7f8"
        d="M18.912 8.928h.384a.457.457 0 0 0 .064.32 2.054 2.054 0 0 0 1.792.32c-.011.47 0 .939.032 1.408l.544.96a5.53 5.53 0 0 1 0 2.368 6.828 6.828 0 0 0-.32.704 6.275 6.275 0 0 0-.256.544c.044.287.076.575.096.864.147.083.275.189.384.32a.14.14 0 0 1 .096-.064c.096.301.213.6.352.896.331.619.693 1.216 1.088 1.792.175.516.09.985-.256 1.408-.141.12-.259.259-.352.416a.865.865 0 0 1-.448.224.99.99 0 0 1-.448-.064c-.2.174-.371.142-.512-.096a2.97 2.97 0 0 1 .448-.16c.645-.139 1.05-.523 1.216-1.152a.73.73 0 0 0-.128-.384 38.627 38.627 0 0 0-1.696-2.816c-.179-.282-.403-.325-.672-.128a6.86 6.86 0 0 1-.32-.544c1.341-1.341 1.65-2.888.928-4.64-.781-1.473-2.007-2.177-3.68-2.112a7.03 7.03 0 0 1 .96-.096l.064-.064a.9.9 0 0 1-.384-.224c.324.076.666.076 1.024 0z"
        style="fill:var(--color10, #f4f7f8)" />
      <path fill="#d0d8de"
        d="M19.296 8.928c.618.041 1.236.063 1.856.064v.576a2.054 2.054 0 0 1-1.792-.32.457.457 0 0 1-.064-.32z"
        style="fill:var(--color11, #d0d8de)" />
      <path fill="#212e39"
        d="M10.976 6.944c1.213-.011 2.035.543 2.464 1.664.137 1.335-.429 2.22-1.696 2.656-.896.165-1.611-.123-2.144-.864-.668-1.121-.529-2.135.416-3.04.312-.178.632-.317.96-.416z"
        style="fill:var(--color12, #212e39)" />
      <path fill="#18242f"
        d="M12.128 9.056a4.504 4.504 0 0 1-.992 1.024 4.524 4.524 0 0 1-.992-1.024c.06-.242.209-.338.448-.288l.544.544c.304-.355.634-.675.992-.96.082.081.146.06.192-.064a.463.463 0 0 1 .16.128c-.031.099-.063.205-.096.32a.279.279 0 0 1-.224-.064 1.181 1.181 0 0 0-.032.384z"
        style="fill:var(--color13, #18242f)" />
      <path fill="#f6f8f9"
        d="M12.128 8.352a7.247 7.247 0 0 0-.992.96l-.544-.544c-.239-.05-.388.046-.448.288.275.392.606.734.992 1.024.386-.29.717-.631.992-1.024.235-.192.448-.406.64-.64.337.732.209 1.383-.384 1.952-1.064.705-1.907.502-2.528-.608-.334-1.071.018-1.828 1.056-2.272a2.7 2.7 0 0 1 .832 0l.64.384c.061.046.072.099.032.16a2.018 2.018 0 0 0-.288.32z"
        style="fill:var(--color14, #f6f8f9)" />
      <path fill="#202c37"
        d="M17.248 9.312c1.673-.065 2.899.639 3.68 2.112.722 1.752.413 3.299-.928 4.64.099.187.205.368.32.544.269-.197.493-.154.672.128a38.627 38.627 0 0 1 1.696 2.816 8.783 8.783 0 0 0-.416-.192c-.009.162-.02.311-.032.448a36.006 36.006 0 0 0-1.536-2.432.457.457 0 0 0 .32-.064c-.162-.084-.162-.159 0-.224-.195-.023-.216-.066-.064-.128-.171-.043-.171-.085 0-.128l-.064-.064a9.602 9.602 0 0 0-.768-.16 1.006 1.006 0 0 0-.256.128c.06.201-.004.265-.192.192.062-.178.009-.327-.16-.448l-.352.224.192.32a.17.17 0 0 0 .192-.032.415.415 0 0 1-.32.192.29.29 0 0 1-.096-.128 1.323 1.323 0 0 1-.224.256 2.828 2.828 0 0 0-.32-.448 4.788 4.788 0 0 1-2.176 0c-1.218-.472-2.05-1.325-2.496-2.56a2.397 2.397 0 0 0-.128-.768c-.01-.518.044-1.03.16-1.536.575-1.547 1.674-2.443 3.296-2.688z"
        style="fill:var(--color15, #202c37)" />
      <path fill="#eef3f5"
        d="M17.184 9.824c1.356-.053 2.412.48 3.168 1.6.604 1.276.54 2.513-.192 3.712-.869 1.143-2.011 1.58-3.424 1.312-2.068-.913-2.783-2.459-2.144-4.64.524-1.119 1.388-1.78 2.592-1.984z"
        style="fill:var(--color16, #eef3f5)" />
      <path fill="#23313c"
        d="M13.28 12.768c-.058.045-.079.109-.064.192h-.32c-.47.011-.939 0-1.408-.032-.171-.149-.171-.299 0-.448.597-.032 1.194-.043 1.792-.032v.32z"
        style="fill:var(--color17, #23313c)" />
      <path fill="#1b2833"
        d="M9.44 11.872h1.472c.011.491 0 .982-.032 1.472a4.28 4.28 0 0 1-1.472 0 5.889 5.889 0 0 1 .032-1.472z"
        style="fill:var(--color18, #1b2833)" />
      <path fill="#f5f8fa" d="M9.888 12.32h.512v.64h-.512v-.64z"
        style="fill:var(--color19, #f5f8fa)" />
      <path fill="#d2d9dd"
        d="M13.28 12.768a2.798 2.798 0 0 0 0 1.024h-.448a2.999 2.999 0 0 1 .064-.832h.32c-.015-.083.006-.147.064-.192z"
        style="fill:var(--color20, #d2d9dd)" />
      <path fill="#17242f"
        d="M12.832 13.792h.448l.064.384c-.607.064-1.226.085-1.856.064-.14-.114-.161-.253-.064-.416a15.38 15.38 0 0 1 1.408-.032z"
        style="fill:var(--color21, #17242f)" />
      <path fill="#2e3941"
        d="M9.568 13.856h1.152v.448c-.406.011-.811 0-1.216-.032-.087-.155-.065-.293.064-.416z"
        style="fill:var(--color22, #2e3941)" />
      <path fill="#212d37"
        d="M16.928 10.144c1.599-.166 2.74.474 3.424 1.92.414 1.595-.066 2.843-1.44 3.744-1.956.744-3.354.158-4.192-1.76-.356-1.934.38-3.236 2.208-3.904z"
        style="fill:var(--color23, #212d37)" />
      <path fill="#cfd6db"
        d="M19.744 14.112c.151-1.007-.147-1.85-.896-2.528a1.928 1.928 0 0 0-.96-.384l.064-.064a2.386 2.386 0 0 0-1.152-.352c1.252-.34 2.223.044 2.912 1.152.215.6.279 1.219.192 1.856a.613.613 0 0 1-.16.32z"
        style="fill:var(--color24, #cfd6db)" />
      <path fill="#f9fbfb"
        d="M16.8 10.784c.396.013.78.131 1.152.352l-.064.064c.356.041.676.169.96.384.749.678 1.047 1.521.896 2.528-.338.838-.956 1.34-1.856 1.504-1.463.084-2.37-.588-2.72-2.016-.189-1.376.355-2.315 1.632-2.816z"
        style="fill:var(--color25, #f9fbfb)" />
      <path fill="#1f2a34"
        d="M18.656 12c.34.009.479.18.416.512l-1.824 1.952a.344.344 0 0 1-.32-.064 3.572 3.572 0 0 0-.8-.8c-.022-.341.138-.479.48-.416.164.209.356.358.576.448A50.87 50.87 0 0 0 18.656 12z"
        style="fill:var(--color26, #1f2a34)" />
      <path fill="#1f2b34"
        d="M16.864 11.04c.323-.055.483.073.48.384a3.362 3.362 0 0 0-.672.352 6.545 6.545 0 0 0-.768.96c-.286.045-.403-.073-.352-.352a3.609 3.609 0 0 1 1.312-1.344z"
        style="fill:var(--color27, #1f2b34)" />
      <path fill="#758b90"
        d="M21.728 14.304a2.125 2.125 0 0 1-.128.576c.042.125.063.253.064.384a.358.358 0 0 1-.096-.192.184.184 0 0 0-.16-.064c.095-.245.202-.479.32-.704z"
        opacity=".767" style="fill:var(--color28, #758b90)" />
      <path fill="#cbd6db"
        d="M13.792 13.536c.083.241.126.497.128.768a3.93 3.93 0 0 0 0 .736l-.192.096h-2.304a15.28 15.28 0 0 1 1.408-.096 2.266 2.266 0 0 1-.064-.736 6.45 6.45 0 0 1-1.28-.064c.63.021 1.249 0 1.856-.064.079.196.164.388.256.576l.128-.512c.165-.089.165-.185 0-.288a.786.786 0 0 0 .064-.416z"
        style="fill:var(--color29, #cbd6db)" />
      <path fill="#19242f"
        d="M11.424 15.136h2.304c.066.129.13.257.192.384a3.196 3.196 0 0 1-.896.064c-.534.011-1.067 0-1.6-.032-.169-.147-.169-.285 0-.416z"
        style="fill:var(--color30, #19242f)" />
      <path fill="#4b535c"
        d="M9.632 15.072c.299-.011.598 0 .896.032.06.152.081.312.064.48-.323.021-.643 0-.96-.064a.425.425 0 0 1 0-.448z"
        style="fill:var(--color31, #4b535c)" />
      <path fill="#22323d"
        d="M21.408 15.008a.184.184 0 0 1 .16.064.358.358 0 0 0 .096.192c.13.449.151.919.064 1.408a.14.14 0 0 0-.096.064 1.372 1.372 0 0 0-.384-.32c-.02-.289-.052-.577-.096-.864.077-.186.162-.367.256-.544z"
        style="fill:var(--color32, #22323d)" />
      <path fill="#4a535c"
        d="M13.92 15.52c.05.018.093.05.128.096-.298.032-.597.043-.896.032-.063.011-.106-.01-.128-.064.311.02.61-.001.896-.064z"
        style="fill:var(--color33, #4a535c)" />
      <path fill="#eaf0f3"
        d="m19.68 16.928-.128.064a.17.17 0 0 1-.192.032l-.192-.32.352-.224c.169.121.222.27.16.448z"
        style="fill:var(--color34, #eaf0f3)" />
      <path fill="#202c37"
        d="M13.664 16.48c.342-.011.683 0 1.024.032.287.069.521.218.704.448-.383.032-.767.043-1.152.032-.94.021-1.878 0-2.816-.064-.165-.142-.165-.28 0-.416.746-.032 1.493-.043 2.24-.032z"
        style="fill:var(--color15, #202c37)" />
      <path fill="#bfc8cf"
        d="M13.92 14.304c.446 1.235 1.278 2.088 2.496 2.56a.14.14 0 0 1-.064.096l-.576.064.192.064a.464.464 0 0 0-.192.128c.761.16 1.529.266 2.304.32a.507.507 0 0 0-.256.128l.128.064c-.146.087-.157.183-.032.288.159-.177.234-.155.224.064-.2.013-.392.055-.576.128h-.192a.581.581 0 0 0 .256-.256.314.314 0 0 0-.064-.16 206.233 206.233 0 0 1-5.12-.096c.833.021 1.665 0 2.496-.064a1.256 1.256 0 0 1-.704-.64c.385.011.769 0 1.152-.032a1.247 1.247 0 0 0-.704-.448c-.341-.032-.682-.043-1.024-.032a63.062 63.062 0 0 0-.512-.832c.299.011.598 0 .896-.032a.278.278 0 0 0-.128-.096 22.897 22.897 0 0 0-.192-.384l.192-.096a3.93 3.93 0 0 1 0-.736z"
        style="fill:var(--color35, #bfc8cf)" />
      <path fill="#f8fafa"
        d="M20.704 17.376a36.006 36.006 0 0 1 1.536 2.432c-.121.615-.484.839-1.088.672a25.813 25.813 0 0 1-1.76-2.528c-.04-.061-.029-.114.032-.16.368-.232.741-.456 1.12-.672.07.076.123.162.16.256z"
        style="fill:var(--color36, #f8fafa)" />
      <path fill="#4e5962"
        d="M9.696 17.696h1.024c.057.413-.124.562-.544.448l-.48-.032c-.164-.138-.164-.277 0-.416z"
        style="fill:var(--color37, #4e5962)" />
      <path fill="#1a2936"
        d="M12.448 17.696c1.696.053 3.402.085 5.12.096.036.046.057.1.064.16a.581.581 0 0 1-.256.256c-1.984.011-3.968 0-5.952-.032-.137-.133-.159-.282-.064-.448a9.19 9.19 0 0 1 1.088-.032z"
        style="fill:var(--color38, #1a2936)" />
      <path fill="#ced7dd"
        d="M16.416 16.864a4.788 4.788 0 0 0 2.176 0c.124.142.23.292.32.448a.556.556 0 0 1-.224.32.27.27 0 0 0 0 .256 148.621 148.621 0 0 0 2.016 3.008.724.724 0 0 1-.224.064 3.628 3.628 0 0 1-.352-.544l.064-.064c-.08-.029-.133.003-.16.096a5.563 5.563 0 0 0-.608-.736c.061-.083.061-.158 0-.224a.463.463 0 0 1-.16-.128.279.279 0 0 1-.224.064.311.311 0 0 0-.064-.256 2.842 2.842 0 0 0-.576-.448 4.87 4.87 0 0 0-.16-.448 1.31 1.31 0 0 0-.544.064l-.128-.128c.184-.073.376-.115.576-.128.01-.219-.065-.241-.224-.064-.125-.105-.114-.201.032-.288l-.128-.064a.507.507 0 0 1 .256-.128 16.89 16.89 0 0 1-2.304-.32.464.464 0 0 1 .192-.128l-.192-.064.576-.064a.14.14 0 0 0 .064-.096z"
        style="fill:var(--color39, #ced7dd)" />
      <path fill="#1a2530"
        d="M20.704 17.376a.817.817 0 0 0-.16-.256c-.379.216-.752.44-1.12.672-.061.046-.072.099-.032.16a25.813 25.813 0 0 0 1.76 2.528c.604.167.967-.057 1.088-.672.012-.137.023-.286.032-.448.148.064.287.128.416.192a.73.73 0 0 1 .128.384c-.166.629-.571 1.013-1.216 1.152a1.371 1.371 0 0 1-.896-.192 148.621 148.621 0 0 1-2.016-3.008.27.27 0 0 1 0-.256.556.556 0 0 0 .224-.32c.083-.073.158-.158.224-.256a.29.29 0 0 0 .096.128.415.415 0 0 0 .32-.192l.128-.064c.188.073.252.009.192-.192.079-.055.164-.097.256-.128.258.043.514.096.768.16l.064.064c-.171.043-.171.085 0 .128-.152.062-.131.105.064.128-.162.065-.162.14 0 .224a.457.457 0 0 1-.32.064z"
        style="fill:var(--color40, #1a2530)" />
      <path fill="#212f39"
        d="M10.528 19.104c1.507-.083 2.2.621 2.08 2.112-.359.87-1.009 1.264-1.952 1.184-1.124-.448-1.497-1.248-1.12-2.4a1.85 1.85 0 0 1 .992-.896z"
        style="fill:var(--color41, #212f39)" />
      <path fill="#f3f6f7"
        d="M10.72 19.552c.708-.025 1.188.295 1.44.96.061.678-.227 1.136-.864 1.376-1.033.033-1.492-.468-1.376-1.504.151-.396.417-.673.8-.832z"
        style="fill:var(--color42, #f3f6f7)" />
      <path fill="#202e37"
        d="M15.776 21.536c-.151-.109-.151-.216 0-.32-.106-.155-.234-.198-.384-.128.187-.574.016-.99-.512-1.248-.689-.036-.977.295-.864.992.11.377.356.612.736.704a.358.358 0 0 0 .192.096l-.128.064c.171.043.32.118.448.224-.953.232-1.539-.131-1.76-1.088a1.032 1.032 0 0 1 0-.512c.21-.772.711-1.102 1.504-.992.615.206.935.633.96 1.28a2.492 2.492 0 0 1-.192.928z"
        style="fill:var(--color43, #202e37)" />
      <path fill="#f6f8f9"
        d="M15.392 21.088c-.004.035-.025.056-.064.064a1.267 1.267 0 0 1-.256-.224c-.232-.084-.382-.01-.448.224.094.121.201.228.32.32a.198.198 0 0 1-.192.064.954.954 0 0 1-.736-.704c-.113-.697.175-1.028.864-.992.528.258.699.674.512 1.248z"
        style="fill:var(--color14, #f6f8f9)" />
      <path fill="#d8dee1"
        d="M20.704 20.896c.273.166.572.23.896.192a2.97 2.97 0 0 0-.448.16c.141.238.312.27.512.096a.99.99 0 0 0 .448.064.78.78 0 0 1-.32.192c-.015-.038-.047-.06-.096-.064-.137.04-.275.072-.416.096a1.974 1.974 0 0 1-.512.736 4.808 4.808 0 0 1-.576-.416A89.63 89.63 0 0 1 19.008 20a13.196 13.196 0 0 1-1.312-1.664 1.31 1.31 0 0 1 .544-.064c.069.17.122.319.16.448.209.123.401.272.576.448a.311.311 0 0 1 .064.256.279.279 0 0 0 .224-.064.463.463 0 0 0 .16.128c.061.066.061.141 0 .224.226.231.429.476.608.736.027-.093.08-.125.16-.096l-.064.064c.121.223.239.404.352.544a.724.724 0 0 0 .224-.064z"
        style="fill:var(--color44, #d8dee1)" />
      <path fill="#1b2833"
        d="M11.488 20.064c.312.002.45.151.416.448a2.991 2.991 0 0 0-.864.928.27.27 0 0 1-.256 0l-.608-.608c-.019-.206.077-.334.288-.384.148.083.297.168.448.256.237-.173.429-.386.576-.64z"
        style="fill:var(--color18, #1b2833)" />
      <path fill="#1d2b36"
        d="M17.12 19.36c.176-.02.346.001.512.064.317.783.616 1.573.896 2.368-.119.23-.279.252-.48.064a2.41 2.41 0 0 1-.16-.512c-.342-.011-.683 0-1.024.032-.111.169-.196.35-.256.544-.419.146-.537.018-.352-.384.307-.72.595-1.445.864-2.176z"
        style="fill:var(--color45, #1d2b36)" />
      <path fill="#edf2f4"
        d="M17.312 20.064c.064-.002.107.03.128.096.096.244.181.489.256.736h-.64c.103-.271.189-.548.256-.832z"
        style="fill:var(--color46, #edf2f4)" />
      <path fill="#12202e"
        d="M15.392 21.088c.15-.07.278-.027.384.128-.151.104-.151.211 0 .32.061.074.125.149.192.224-.179.367-.414.42-.704.16a1.12 1.12 0 0 0-.448-.224l.128-.064a.358.358 0 0 1-.192-.096.198.198 0 0 0 .192-.064 1.795 1.795 0 0 1-.32-.32c.066-.234.216-.308.448-.224.076.087.161.161.256.224.039-.008.06-.029.064-.064z"
        style="fill:var(--color47, #12202e)" />
      <path fill="#1a2632"
        d="M21.792 21.6c-.151.772-.577 1.327-1.28 1.664-.282.023-.56.055-.832.096l.256-.128-.064-.064c.074-.112.159-.122.256-.032a4.83 4.83 0 0 0 .256-.384c.149-.107.277-.235.384-.384.224-.202.395-.447.512-.736.141-.024.279-.056.416-.096.049.004.081.026.096.064z"
        style="fill:var(--color48, #1a2632)" />
      <path fill="#8c9da6"
        d="M18.4 26.72a1.061 1.061 0 0 0-.512.064h-6.336a1.71 1.71 0 0 1 .608-.128c2.075-.014 4.155.008 6.24.064z"
        opacity=".125" style="fill:var(--color49, #8c9da6)" />
      <path fill="#c1d4dd"
        d="M17.888 26.784c.157-.062.327-.084.512-.064h.256a.295.295 0 0 1-.064.256.272.272 0 0 0-.192-.16 2.043 2.043 0 0 0-.512-.032z"
        opacity=".859" style="fill:var(--color50, #c1d4dd)" />
      <path fill="#192734"
        d="M11.552 26.784h6.336c.172-.011.343 0 .512.032a.272.272 0 0 1 .192.16.182.182 0 0 1-.064.16 1.64 1.64 0 0 1-.512.128c-2.155.043-4.309.043-6.464 0-.252-.063-.316-.212-.192-.448a.313.313 0 0 1 .192-.032z"
        style="fill:var(--color51, #192734)" />
    </symbol>
    <symbol id="icon-web-dev" viewBox="0 0 32 32">
      <path
        d="M6.213.838a1.47 1.47 0 0 0-.75.831c-.063.188-.081.844-.088 2.931v2.694l-.419.037a3.479 3.479 0 0 0-.719.138c-.406.144-.881.581-1.094 1.019l-.175.356-.019 7.037-.013 7.037.125.163c.169.212.5.231.688.044.125-.125.125-.212.125-7.019.006-7.3 0-7.169.294-7.494.175-.2.425-.3.831-.344l.375-.037v6.65c.006 5.394.019 6.694.088 6.888.138.369.4.669.75.831l.319.15h9.75c9.325 0 9.762-.006 10-.119.306-.137.563-.387.744-.725l.131-.25.019-6.675c.012-6.406.019-6.669.131-6.669.175 0 .519.256.656.5.125.213.131.325.163 4.169.031 3.613.038 3.962.137 4.056.169.169.481.137.656-.063l.15-.175-.019-3.944c-.019-3.65-.031-3.975-.137-4.244-.225-.6-.887-1.144-1.481-1.219l-.244-.037V4.724c0-1.538-.031-2.744-.069-2.906a1.453 1.453 0 0 0-.756-.969l-.325-.162H6.531l-.319.15zm19.856.95c.144.156.15.194.169 1.25l.019 1.087H6.313V3.094c0-1.05.056-1.344.263-1.425.044-.019 4.413-.038 9.713-.038l9.631-.006.15.163zm.169 11.499-.019 8.225-.35.3h-9.606c-7.45-.006-9.631-.019-9.706-.081-.244-.188-.244-.081-.244-8.506V5.063h19.938l-.012 8.225z" />
      <path
        d="M18.906 2.594c-.331.325-.081.781.425.781.381 0 .569-.156.569-.469s-.188-.469-.569-.469c-.206 0-.313.038-.425.156zM21.038 2.569c-.363.288-.119.806.381.806.35 0 .444-.044.556-.263.081-.156.081-.219.019-.369a.494.494 0 0 0-.188-.244c-.194-.106-.587-.075-.769.069zM23.175 2.525a.47.47 0 0 0-.144.575c.094.225.194.275.556.275.494 0 .738-.525.375-.806-.194-.15-.619-.175-.788-.044zM19.969 7.906c-.156.15-.156.156-.156 1.369 0 .762.025 1.275.069 1.369.087.194.3.294.619.294.144 0 .25.031.25.069 0 .206-.456.894-.881 1.319-.375.387-.581.537-1 .738-.288.131-.644.262-.788.287l-.269.044v-.375c0-.306-.025-.394-.144-.506-.137-.131-.2-.137-1.444-.137-1.287 0-1.294 0-1.444.156-.137.131-.156.206-.156.563v.406h-3.294l-.113-.25c-.338-.756-1.338-1.063-2.1-.65-.569.313-.838.819-.794 1.494.094 1.488 2.088 1.962 2.831.675l.188-.325.525-.006h.525l-.469.488c-.5.525-.894 1.131-1.119 1.713l-.137.363h-.456c-.412 0-.463.012-.581.163-.125.156-.131.25-.131 1.4s.006 1.244.131 1.4l.125.163h2.675l.125-.163c.125-.156.131-.25.131-1.4s-.006-1.244-.131-1.4c-.113-.144-.175-.163-.5-.163-.2 0-.369-.019-.369-.038s.094-.219.206-.444c.469-.95 1.512-1.762 2.531-1.988l.2-.044v.356c0 .306.025.375.181.537l.181.181h1.2c1.569 0 1.625-.025 1.625-.756v-.369h3.425l.038.137c.056.244.4.594.738.762a1.54 1.54 0 0 0 2.219-1.525c-.137-1.569-2.206-1.95-2.925-.55l-.119.238h-1.194l.413-.387c.481-.45.962-1.15 1.194-1.75l.169-.425h.4c.419 0 .725-.113.794-.281.019-.056.038-.662.038-1.35 0-1.681.125-1.556-1.594-1.556-1.281 0-1.288 0-1.438.156zm2.094 1.438V10H20.75V8.687h1.313v.656zm-11.832 4.125c.369.244.287.887-.137 1.069-.444.181-.844-.088-.844-.569.006-.531.519-.794.981-.5zm6.644.5v.662l-1.281-.037-.019-.644-.019-.637h1.319v.656zm6.119-.569c.556.294.337 1.162-.3 1.162-.344 0-.563-.2-.613-.544-.031-.244-.012-.287.188-.488.238-.238.438-.275.725-.131zm-11.256 5.175-.019.644h-1.25l-.019-.644-.019-.637h1.325l-.019.637zM28.288 18.569l-.163.125v7.619H3.875v-.781c0-.7-.013-.794-.125-.906a.466.466 0 0 0-.681.038c-.119.15-.131.25-.131.906v.744h-.712c-.75 0-1.063.069-1.163.25-.106.2-.075 2.175.038 2.569.313 1.05 1.094 1.825 2.119 2.094.256.069 2.569.087 12.788.087 12.275 0 12.488 0 12.881-.125a2.953 2.953 0 0 0 2.019-2.094c.106-.425.137-2.337.031-2.531-.1-.181-.413-.25-1.163-.25h-.712v-7.512l-.181-.181c-.219-.212-.369-.225-.594-.05zm-10.276 9.312c.012.344.006.644-.006.656s-.969.025-2.113.025h-2.088l-.15.156c-.194.188-.2.444-.019.637l.131.144h2.244c2.425 0 2.419 0 2.738-.344.15-.156.156-.219.188-1.019l.031-.856 11.106-.031-.025.825c-.019.725-.044.875-.175 1.144a2.28 2.28 0 0 1-.969.975l-.313.15-25.025.031-.35-.131c-.425-.156-.919-.619-1.113-1.038-.113-.25-.137-.444-.156-1.131l-.025-.825h16.069l.019.631z" />
    </symbol>
    <symbol id="icon-web-design" viewBox="0 0 32 32">
      <path d="M0 0v25.806h32V0H0zm30.968 24.774H1.033V1.032h29.935v23.742z" />
      <path
        d="M20.129 2.065H2.064V13.42h18.065V2.065zm-1.032 10.322h-16v-9.29h16v9.29zM21.161 2.065h8.774v1.032h-8.774V2.065zM21.161 4.129h8.774v1.032h-8.774V4.129zM21.161 6.194h8.774v1.032h-8.774V6.194zM21.161 8.258h8.774V9.29h-8.774V8.258zM21.161 10.323h8.774v1.032h-8.774v-1.032zM21.161 12.387h8.774v1.032h-8.774v-1.032zM10.839 14.452H2.065v9.29h8.774v-9.29zM9.806 22.71h-6.71v-7.226h6.71v7.226zM11.871 23.742h8.258v-9.29h-8.258v9.29zm1.032-8.258h6.194v7.226h-6.194v-7.226zM29.935 14.452h-8.774v9.29h8.774v-9.29zm-1.032 8.258h-6.71v-7.226h6.71v7.226z" />
      <path
        d="M10.839 11.355c1.992 0 3.613-1.621 3.613-3.613s-1.621-3.613-3.613-3.613S7.226 5.75 7.226 7.742s1.621 3.613 3.613 3.613zm0-6.194c1.423 0 2.581 1.158 2.581 2.581s-1.158 2.581-2.581 2.581-2.581-1.158-2.581-2.581 1.158-2.581 2.581-2.581zM29.419 26.839H5.024L.508 29.42l4.516 2.581h24.395c1.423 0 2.581-1.158 2.581-2.581s-1.158-2.581-2.581-2.581zm-24.258 4.05-2.572-1.47 2.572-1.47v2.94zm19.613.079H6.193v-3.097h18.581v3.097zm2.065 0h-1.032v-3.097h1.032v3.097zm2.58 0h-1.548v-3.097h1.548c.854 0 1.548.695 1.548 1.548s-.695 1.548-1.548 1.548z" />
    </symbol>
    <symbol id="icon-mob-cod" viewBox="0 0 32 32">
      <path
        d="M23.193 0H9.326a2.14 2.14 0 0 0-2.133 2.133v27.733a2.14 2.14 0 0 0 2.133 2.133h13.867a2.14 2.14 0 0 0 2.133-2.133V2.133A2.14 2.14 0 0 0 23.193 0zm1.067 29.867a1.07 1.07 0 0 1-1.067 1.067H9.326a1.07 1.07 0 0 1-1.067-1.067V2.134c0-.587.48-1.067 1.067-1.067h13.867c.587 0 1.067.48 1.067 1.067v27.733z" />
      <path
        d="M7.193 3.2v24.533h18.133V3.2H7.193zM24.26 26.667h-16v-22.4h16v22.4zM18.393 1.6h-2.667c-.32 0-.533.213-.533.533s.213.533.533.533h2.667c.32 0 .533-.213.533-.533s-.213-.533-.533-.533zM14.127 1.6h-.533c-.32 0-.533.213-.533.533s.213.533.533.533h.533c.32 0 .533-.213.533-.533s-.213-.533-.533-.533z" />
      <path
        d="M7.193 4.8c-.32 0-.533.213-.533.533v.533c0 .32.213.533.533.533s.533-.213.533-.533v-.533c0-.32-.213-.533-.533-.533zM7.193 6.933c-.32 0-.533.213-.533.533v.533c0 .32.213.533.533.533s.533-.213.533-.533v-.533c0-.32-.213-.533-.533-.533zM7.193 9.067c-.32 0-.533.213-.533.533v.533c0 .32.213.533.533.533s.533-.213.533-.533V9.6c0-.32-.213-.533-.533-.533zM16.26 27.2c-1.173 0-2.133.96-2.133 2.133s.96 2.133 2.133 2.133 2.133-.96 2.133-2.133A2.14 2.14 0 0 0 16.26 27.2zm0 3.2c-.587 0-1.067-.48-1.067-1.067s.48-1.067 1.067-1.067 1.067.48 1.067 1.067-.48 1.067-1.067 1.067zM12.847 12.373c-.213-.16-.587-.16-.747.107l-2.133 2.667c-.16.213-.16.587.107.747.213.16.533.16.747-.107l2.133-2.667c.16-.213.16-.587-.107-.747z" />
      <path
        d="m12.953 17.813-2.133-2.667c-.16-.213-.533-.267-.747-.107s-.267.533-.107.747l2.133 2.667c.16.213.533.267.747.107a.527.527 0 0 0 .107-.747zM22.553 15.147 20.42 12.48c-.16-.213-.533-.267-.747-.107s-.267.533-.107.747l2.133 2.667c.16.213.533.267.747.107a.527.527 0 0 0 .107-.747z" />
      <path
        d="M22.447 15.04c-.213-.16-.587-.16-.747.107l-2.133 2.667c-.16.213-.16.587.107.747s.533.16.747-.107l2.133-2.667c.16-.213.16-.587-.107-.747zM18.02 10.133a.645.645 0 0 0-.693.373l-3.2 10.133c-.107.267.053.587.373.693.267.107.587-.053.693-.373l3.2-10.133c.107-.267-.053-.587-.373-.693zM5.06 2.133c-.907 0-1.6-.693-1.6-1.6 0-.693-1.067-.693-1.067 0 0 .907-.693 1.6-1.6 1.6C.1 2.133.1 3.2.793 3.2c.907 0 1.6.693 1.6 1.6 0 .693 1.067.693 1.067 0 0-.907.693-1.6 1.6-1.6.693 0 .693-1.067 0-1.067zM2.927 3.2a2.54 2.54 0 0 0-.533-.533c.213-.16.373-.32.533-.533.16.213.32.373.533.533a2.54 2.54 0 0 0-.533.533zM29.06 7.467c-.32 0-.533.213-.533.533v2.133c0 .32.213.533.533.533s.533-.213.533-.533V8c0-.32-.213-.533-.533-.533z" />
      <path
        d="M30.127 8.533h-2.133c-.32 0-.533.213-.533.533s.213.533.533.533h2.133c.32 0 .533-.213.533-.533s-.213-.533-.533-.533zM3.993 22.933c-.32 0-.533.213-.533.533s.213.533.533.533.533-.213.533-.533-.213-.533-.533-.533zM1.327 13.333c-.32 0-.533.213-.533.533s.213.533.533.533.533-.213.533-.533-.213-.533-.533-.533zM27.46 18.667c-.32 0-.533.213-.533.533s.213.533.533.533.533-.213.533-.533-.213-.533-.533-.533zM31.193 29.867c-.32 0-.533.213-.533.533s.213.533.533.533.533-.213.533-.533-.213-.533-.533-.533z" />
    </symbol>
    <symbol id="icon-server" viewBox="0 0 32 32">
      <path
        d="M20.943 2.895 22.7 1.138l-.943-.943-3.367 3.367 3.367 3.367.943-.943-1.757-1.758h7.058v8.667h1.333v-10zM10.243 25.071l-.943.943 1.757 1.758H3.999v-8.667H2.666v10h8.391L9.3 30.862l.943.943 3.367-3.367zM16 6.667V0H0v6.667h4v.667H0v6.667h4v1.333H2.667v1.333h10.667v-1.333h-1.333v-1.333h4V7.334h-4v-.667h4zm-5.333 8.666H5.334V14h5.333v1.333zm4-6.666v4H1.334v-4h13.333zM5.333 7.333v-.667h5.333v.667H5.333zm-4-2v-4h13.333v4H1.333z" />
      <path
        d="M2.667 2.667h4V4h-4V2.667zM12 2.667h1.333V4H12V2.667zM9.333 2.667h1.333V4H9.333V2.667zM2.667 10h4v1.333h-4V10zM12 10h1.333v1.333H12V10zM9.333 10h1.333v1.333H9.333V10zM32 22v-6.667H16V22h4v.667h-4v6.667h4v1.333h-1.333V32h10.667v-1.333h-1.333v-1.333h4v-6.667h-4V22h4zm-5.333 8.667h-5.333v-1.333h5.333v1.333zm4-6.667v4H17.334v-4h13.333zm-9.334-1.333V22h5.333v.667h-5.333zm-4-2v-4h13.333v4H17.333z" />
      <path
        d="M18.667 18h4v1.333h-4V18zM28 18h1.333v1.333H28V18zM25.333 18h1.333v1.333h-1.333V18zM18.667 25.333h4v1.333h-4v-1.333zM28 25.333h1.333v1.333H28v-1.333zM25.333 25.333h1.333v1.333h-1.333v-1.333z" />
    </symbol>
    <symbol id="icon-server-dev" viewBox="0 0 32 32">
      <path
        d="M15.484 22.71h1.032v1.032h-1.032V22.71zM2.065 4.129h1.548v1.032H2.065V4.129zM4.645 4.129h1.548v1.032H4.645V4.129zM7.226 4.129h1.548v1.032H7.226V4.129zM2.065 6.194h1.548v1.032H2.065V6.194zM4.645 6.194h1.548v1.032H4.645V6.194zM7.226 6.194h1.548v1.032H7.226V6.194z" />
      <path
        d="M32 3.097V0H21.677v3.097h1.032v1.032h-1.032v2.065H10.838V0H-.001v9.29h7.226v12.011l-.391-.391-.578.579a1.675 1.675 0 0 0-.063-.026v-.818H3.096v.818l-.063.026-.578-.579-2.19 2.19.578.578-.026.064h-.818v3.097h.818l.026.063-.578.578 2.19 2.19.578-.579.063.026v.818h3.097v-.818l.063-.026.578.579.391-.392v.657h1.032V32h4.129v-2.065h7.226V32h4.129v-2.065h.516v-1.032h-16v-.657l.766-.766-.578-.578.026-.063h.818v-3.097h-.818a1.675 1.675 0 0 1-.026-.063l.578-.578-.766-.766v-2.721h16.516v-8.258h7.226V8.259h-1.032V7.227h1.032V4.13h-1.032V3.098h1.032zM20.645 29.935h2.065v1.032h-2.065v-1.032zm-11.355 0h2.065v1.032H9.29v-1.032zm1.549-22.709H22.71v1.032h-1.032v2.065h-1.032V8.258h-1.032v2.065h-1.032V8.258H17.55v2.065h-1.032V8.258h-1.032v2.065H8.26V9.291h2.581V7.226zM1.032 1.032h8.774v1.032H1.032V1.032zm7.226 24.774h-.536l-.11.369c-.063.21-.144.408-.242.588l-.184.339.379.378-.73.73-.378-.378-.339.183c-.182.099-.379.18-.588.242l-.369.11v.537H4.129v-.537l-.369-.109a3.063 3.063 0 0 1-.588-.242l-.339-.184-.378.378-.73-.73.379-.378-.184-.339a3.085 3.085 0 0 1-.242-.588l-.11-.369h-.536v-1.032h.536l.11-.369c.063-.21.144-.408.242-.588l.184-.339-.379-.378.73-.73.378.378.339-.183c.182-.099.379-.18.588-.242l.369-.11v-.537h1.032v.537l.369.109c.208.062.406.143.588.242l.339.183.378-.378.73.73-.379.378.184.339c.098.18.179.378.242.588l.11.369h.536v1.032zM1.032 8.258V3.097h8.774v5.161H1.032zm22.71 10.323h-3.097v-2.065h-1.032v2.065h-1.032v-2.065h-1.032v2.065h-1.032v-2.065h-1.032v2.065H8.259v-3.097h15.484v3.097zm0-4.129h-3.097v-2.065h-1.032v2.065h-1.032v-2.065h-1.032v2.065h-1.032v-2.065h-1.032v2.065H8.259v-3.097h15.484v3.097zm7.226-4.129H22.71V9.291h8.258v1.032zm-7.226-2.065V7.226h6.194v1.032h-6.194zm7.226-2.064H22.71V5.162h8.258v1.032zm-7.226-2.065V3.097h6.194v1.032h-6.194zM22.71 2.065V1.033h8.258v1.032H22.71z" />
      <path
        d="M13.419 23.226c0 1.423 1.158 2.581 2.581 2.581s2.581-1.158 2.581-2.581-1.158-2.581-2.581-2.581-2.581 1.158-2.581 2.581zm4.129 0c0 .854-.695 1.548-1.548 1.548s-1.548-.695-1.548-1.548.695-1.548 1.548-1.548 1.548.695 1.548 1.548zM4.645 23.226c-1.139 0-2.065.926-2.065 2.065s.926 2.065 2.065 2.065 2.065-.926 2.065-2.065-.926-2.065-2.065-2.065zm0 3.097a1.033 1.033 0 0 1 0-2.064 1.033 1.033 0 0 1 0 2.064zM23.742 20.645v1.032H22.71v1.032h1.032v1.032H22.71v1.032h1.032v1.032H22.71v1.032h1.032v1.032h1.032v1.032h1.032v-1.032h1.032v1.032h1.032v-1.032h1.032v1.032h1.032v-1.032h1.032v-1.032h1.032v-1.032h-1.032v-1.032h1.032v-1.032h-1.032v-1.032h1.032v-1.032h-1.032v-1.032h-1.032v-1.032h-1.032v1.032H27.87v-1.032h-1.032v1.032h-1.032v-1.032h-1.032v1.032h-1.032zm6.193 1.032v5.161h-5.161v-5.161h5.161z" />
      <path
        d="M27.355 26.323c1.139 0 2.065-.926 2.065-2.065s-.926-2.065-2.065-2.065-2.065.926-2.065 2.065.926 2.065 2.065 2.065zm0-3.097a1.033 1.033 0 0 1 0 2.064 1.033 1.033 0 0 1 0-2.064z" />
    </symbol>
    <symbol id="icon-web-desi" viewBox="0 0 32 32">
      <path
        d="M15.288 8.593c-1.635 0-2.965 1.33-2.965 2.964s1.33 2.965 2.965 2.965c1.635 0 2.964-1.33 2.964-2.965s-1.33-2.964-2.964-2.964zm0 4.837c-1.032 0-1.872-.84-1.872-1.872s.84-1.872 1.872-1.872 1.872.84 1.872 1.872-.84 1.872-1.872 1.872zM28.255 7.69c-1.071 0-1.943.872-1.943 1.943s.872 1.943 1.943 1.943 1.943-.872 1.943-1.943a1.946 1.946 0 0 0-1.943-1.943zm0 2.794a.852.852 0 1 1 .001-1.7.852.852 0 0 1-.001 1.7z" />
      <path
        d="M29.8 2.462h-7.943c-1.213 0-2.2.987-2.2 2.201v2.508H2.336A2.337 2.337 0 0 0 .002 9.505v14.026a2.337 2.337 0 0 0 2.334 2.334H10.7l-.737 2.996-.001.008a.475.475 0 0 0-.007.04l-.003.02c-.002.013-.002.026-.003.04l-.001.02v.004a.77.77 0 0 0 .002.048v.006c.002.02.005.04.009.059l.002.007a.394.394 0 0 0 .014.049l.005.014a.693.693 0 0 0 .043.092l.01.017a.657.657 0 0 0 .023.033l.008.011.004.004.03.035.008.009a.508.508 0 0 0 .043.038l.012.009a.442.442 0 0 0 .035.025l.016.01a.397.397 0 0 0 .035.02l.017.008.038.016.017.006c.013.005.027.008.04.012l.016.004a.573.573 0 0 0 .119.013h10.908a.546.546 0 0 0 0-1.092h-3.626l.635-2.58h9.553a2.091 2.091 0 0 0 2.089-2.088v-4.725a2.203 2.203 0 0 0 1.95-2.186V4.663c0-1.213-.987-2.2-2.2-2.2zm-7.303 2.201a1.11 1.11 0 0 1 1.108-1.108H29.8a1.11 1.11 0 0 1 1.108 1.108v.644h-8.411v-.644zm0 1.736h8.411v8.662h-.261l-2.749-3.025a.546.546 0 0 0-.808 0l-.78.859-1.938-2.132a.546.546 0 0 0-.808 0l-1.066 1.173V6.399zm6.673 8.662h-.892l-1.231-1.354.446-.491 1.677 1.845zm-6.673-1.544.022.02 1.449-1.594 2.835 3.118h-4.305v-1.544zm-1.748-8.854c0-.557.413-1.018.948-1.096a2.188 2.188 0 0 0-.293 1.095v12.203c0 .398.107.772.293 1.095a1.108 1.108 0 0 1-.948-1.095V4.662zM3.456 19.465l4.394-4.516 5.842 6.425H3.456v-1.909zm9.202-.854 1.312-1.444 3.823 4.207h-2.624l-2.511-2.762zM2.617 24.773h-.283a1.243 1.243 0 0 1-1.242-1.242V9.505c0-.685.557-1.242 1.242-1.242h.283a2.08 2.08 0 0 0-.253.996v14.518c0 .36.092.7.253.996zm14.031 3.672h-5.46l.635-2.58h5.46l-.635 2.58zm12.31-4.668a.997.997 0 0 1-.996.996H4.453a.997.997 0 0 1-.996-.996v-1.311h25.501v1.311zm0-2.403H19.27l-4.895-5.386a.546.546 0 0 0-.808 0L11.921 17.8 8.27 13.785a.55.55 0 0 0-.796-.014l-4.016 4.128V9.26c0-.549.446-.995.994-.996h15.206v8.603c0 1.213.987 2.2 2.2 2.2h7.101v2.307zm1.95-4.508a1.11 1.11 0 0 1-1.108 1.108h-6.2a1.109 1.109 0 0 1-1.104-1.108v-.713h8.411v.713z" />
    </symbol>
    <symbol id="icon-web-uiux" viewBox="0 0 32 32">
      <path
        d="M32 0H0v23.742h5.578a11.79 11.79 0 0 0-1.438 5.253 1.545 1.545 0 0 0-1.043 1.457c0 .854.695 1.548 1.548 1.548s1.548-.695 1.548-1.548c0-.664-.423-1.227-1.011-1.447.073-1.926.648-3.72 1.603-5.263h3.562a5.617 5.617 0 0 0 1.283 3.097h-.791v1.032h1.032v1.032h-1.032v1.032h1.032V32h8.258v-2.065h1.032v-1.032h-1.032v-1.032h1.032v-1.032h-.791a5.617 5.617 0 0 0 1.283-3.097h3.562a10.76 10.76 0 0 1 1.603 5.263 1.546 1.546 0 0 0-1.012 1.447c0 .854.695 1.548 1.548 1.548s1.548-.695 1.548-1.548c0-.676-.438-1.246-1.043-1.457a11.786 11.786 0 0 0-1.438-5.253h5.578V0zM4.645 30.968c-.284 0-.516-.232-.516-.516s.232-.516.516-.516.516.232.516.516a.517.517 0 0 1-.516.516zm22.71-1.033c.284 0 .516.232.516.516s-.232.516-.516.516c-.284 0-.516-.232-.516-.516s.232-.516.516-.516zM7.505 22.71a10.888 10.888 0 0 1 4.283-3.277 5.65 5.65 0 0 0-1.439 3.277H7.505zm11.592 8.258h-6.194v-1.032h6.194v1.032zm0-2.065h-6.194v-1.032h6.194v1.032zm.155-2.363-.155.152v.147h-2.581v-1.622a2.062 2.062 0 0 0 1.548-1.991c0-1.139-.926-2.065-2.065-2.065s-2.065.926-2.065 2.065c0 .959.661 1.761 1.548 1.991v1.622h-2.581v-.147l-.155-.152a4.61 4.61 0 0 1-1.394-3.315c0-2.561 2.084-4.645 4.645-4.645s4.645 2.084 4.645 4.645a4.61 4.61 0 0 1-1.394 3.315zM16 24.258a1.033 1.033 0 0 1 0-2.064 1.033 1.033 0 0 1 0 2.064zm5.651-1.548a5.65 5.65 0 0 0-1.439-3.277 10.879 10.879 0 0 1 4.283 3.277h-2.844zm9.317 0h-5.182a11.942 11.942 0 0 0-4.953-4.129h6.101a1.546 1.546 0 0 0 1.453 1.032c.854 0 1.548-.695 1.548-1.548s-.695-1.548-1.548-1.548c-.672 0-1.24.433-1.453 1.032H5.067a1.546 1.546 0 0 0-1.453-1.032c-.854 0-1.548.695-1.548 1.548s.695 1.548 1.548 1.548c.672 0 1.24-.433 1.453-1.032h6.101a11.936 11.936 0 0 0-4.953 4.129H1.033V5.162h29.935V22.71zm-3.097-4.645c0-.284.232-.516.516-.516s.516.232.516.516c0 .284-.232.516-.516.516s-.516-.232-.516-.516zm-23.742 0c0 .284-.232.516-.516.516s-.516-.232-.516-.516c0-.284.232-.516.516-.516s.516.232.516.516zM30.968 4.129H1.033V1.032h29.935v3.097z" />
      <path
        d="M2.065 2.065h3.097v1.032H2.065V2.065zM6.194 2.065h1.032v1.032H6.194V2.065zM10.323 6.194H2.065v9.29h8.258v-9.29zM9.29 14.452H3.096V7.226H9.29v7.226zM20.645 6.194h-9.29v9.29h9.29v-9.29zm-1.032 8.258h-7.226V7.226h7.226v7.226zM29.935 6.194h-8.258v9.29h8.258v-9.29zm-1.032 8.258h-6.194V7.226h6.194v7.226z" />
    </symbol>
    <symbol id="icon-monitor-web" viewBox="0 0 32 32">
      <path
        d="M29.419 2.581H2.58A2.584 2.584 0 0 0-.001 5.162v18.581a2.584 2.584 0 0 0 2.581 2.581h6.71v2.065H7.225v1.032h17.548v-1.032h-2.065v-2.065h6.71a2.584 2.584 0 0 0 2.581-2.581V5.162a2.584 2.584 0 0 0-2.581-2.581zm-7.742 25.806H10.322v-2.065h11.355v2.065zm9.291-4.645a1.55 1.55 0 0 1-1.548 1.548H2.581a1.55 1.55 0 0 1-1.548-1.548v-.516h29.935v.516zm0-1.548H1.033V5.162a1.55 1.55 0 0 1 1.548-1.548H29.42a1.55 1.55 0 0 1 1.548 1.548v17.032z" />
      <path
        d="M2.065 21.161h27.871V4.645H2.065v16.516zM23.226 5.677h5.677v7.226h-5.677V5.677zm0 8.258h5.677v6.194h-5.677v-6.194zm-8.258-8.258h7.226v7.226h-7.226V5.677zm7.226 8.258v6.194H10.323v-6.194h11.871zM3.097 5.677h10.839v7.226H3.097V5.677zm0 8.258h6.194v6.194H3.097v-6.194z" />
      <path
        d="M4.129 11.871H9.29V6.71H4.129v5.161zm1.032-4.129h3.097v3.097H5.161V7.742zM18.581 6.71C17.158 6.71 16 7.868 16 9.291s1.158 2.581 2.581 2.581 2.581-1.158 2.581-2.581-1.158-2.581-2.581-2.581zm0 4.129c-.854 0-1.548-.695-1.548-1.548s.695-1.548 1.548-1.548 1.548.695 1.548 1.548-.695 1.548-1.548 1.548zM10.323 6.71h2.581v1.032h-2.581V6.71zM10.323 8.774h2.581v1.032h-2.581V8.774zM10.323 10.839h2.581v1.032h-2.581v-1.032zM24.258 6.71h3.613v1.032h-3.613V6.71zM24.258 8.774h3.613v1.032h-3.613V8.774zM24.258 10.839h3.613v1.032h-3.613v-1.032zM24.258 19.097h3.613v-4.129h-3.613v4.129zM25.29 16h1.548v2.065H25.29V16zM13.161 18.065h-1.806v1.032h1.806a2.031 2.031 0 0 0 2.011-1.704l.092-.551c.082-.487.499-.841.994-.841s.912.354.994.841l.092.552a2.033 2.033 0 0 0 2.011 1.704h1.806v-1.032h-1.806c-.494 0-.912-.354-.994-.841l-.092-.552c-.164-.987-1.011-1.704-2.011-1.704s-1.847.716-2.011 1.704l-.092.551a1.005 1.005 0 0 1-.994.841zM3.399 17.032l2.794 2.794 2.794-2.794-2.794-2.794-2.794 2.794zm2.795 1.335-1.335-1.335 1.335-1.335 1.335 1.335-1.335 1.335z" />
    </symbol>
    <symbol id="icon-responsive-mark" viewBox="0 0 32 32">
      <path
        d="M14.099 16.433a1.4 1.4 0 1 0 1.399 1.399 1.4 1.4 0 0 0-1.399-1.399zm0 2.243a.846.846 0 1 1 .002-1.692.846.846 0 0 1-.002 1.692z" />
      <path
        d="M30.24 12.879h-2.123V1.96c0-1.08-.879-1.959-1.959-1.959H2.042C.962.001.083.88.083 1.96v17.323c0 1.08.879 1.959 1.959 1.959h8.438l-1.006 3.883h-.08c-.837 0-1.517.681-1.517 1.517v1.127c0 .153.124.277.277.277h11.893a.277.277 0 0 0 .277-.277v-1.127c0-.837-.681-1.517-1.517-1.517h-.079l-1.007-3.883h3.131v9.079A1.68 1.68 0 0 0 22.531 32h7.711a1.68 1.68 0 0 0 1.679-1.679V14.557a1.68 1.68 0 0 0-1.679-1.679zm-8.836 1.955h9.961v13.125h-9.961V14.834zm9.925-.553H21.44a1.126 1.126 0 0 1 1.089-.848h7.711c.525 0 .965.362 1.089.848zm-8.8-1.402a1.68 1.68 0 0 0-1.679 1.679v.672H.635V2.161h26.928v10.718h-5.034zM2.041.554h24.116c.653 0 1.202.448 1.359 1.053H.682A1.406 1.406 0 0 1 2.041.554zm17.728 26.088v.85H8.43v-.85c0-.531.432-.963.963-.963h9.412c.531 0 .964.432.964.963zm-1.616-1.517h-8.109l1.007-3.883h6.096l1.007 3.883zM2.041 20.688a1.408 1.408 0 0 1-1.406-1.406v-1.714H4.91a.277.277 0 1 0 0-.554H.635v-1.231H20.85v4.904H2.041zM30.24 31.446h-7.711c-.62 0-1.125-.505-1.125-1.125v-.557h2.609a.277.277 0 1 0 0-.554h-2.609v-.698h9.961v1.808c0 .62-.505 1.125-1.125 1.125z" />
      <path
        d="M26.384 28.902c-.56 0-1.016.456-1.016 1.016s.456 1.016 1.016 1.016 1.016-.456 1.016-1.016-.456-1.016-1.016-1.016zm0 1.478a.462.462 0 1 1 0-.924.462.462 0 0 1 0 .924zM29.93 16.319h-2.718a.277.277 0 0 0-.277.277v2.506c0 .153.124.277.277.277h2.718a.277.277 0 0 0 .277-.277v-2.506a.277.277 0 0 0-.277-.277zm-.277 2.506h-2.164v-1.952h2.164v1.952zM23.03 19.379h2.72a.277.277 0 0 0 .277-.277v-2.506a.277.277 0 0 0-.277-.277h-2.72a.277.277 0 0 0-.277.277v2.506c0 .153.124.277.277.277zm.277-2.506h2.166v1.952h-2.166v-1.952zM29.93 20.223h-6.899a.277.277 0 0 0-.277.277v2.201c0 .153.124.277.277.277h6.899a.277.277 0 0 0 .277-.277V20.5a.277.277 0 0 0-.277-.277zm-.277 2.202h-6.345v-1.648h6.345v1.648zM29.93 23.846h-6.899a.277.277 0 1 0 0 .554h6.899a.277.277 0 1 0 0-.554zM29.93 25.044h-6.899a.277.277 0 1 0 0 .554h6.899a.277.277 0 1 0 0-.554zM25.417 3.129h-14.92a.277.277 0 0 0-.277.277v2.997c0 .153.124.277.277.277h14.92a.277.277 0 0 0 .277-.277V3.406a.277.277 0 0 0-.277-.277zm-.277 2.997H10.774V3.683H25.14v2.443zM2.808 6.68h5.603a.277.277 0 0 0 .277-.277V3.406a.277.277 0 0 0-.277-.277H2.808a.277.277 0 0 0-.277.277v2.997c0 .153.124.277.277.277zm.277-2.998h5.049v2.443H3.085V3.682zM25.417 7.798H2.809a.277.277 0 0 0-.277.277v1.307c0 .153.124.277.277.277h22.608a.277.277 0 0 0 .277-.277V8.075a.277.277 0 0 0-.277-.277zm-.277 1.307H3.086v-.754H25.14v.754zM8.151 10.804H2.808a.277.277 0 1 0 0 .554h5.343a.277.277 0 1 0 0-.554zM8.151 12.238H2.808a.277.277 0 1 0 0 .554h5.343a.277.277 0 1 0 0-.554zM25.352 10.804H10.566a.277.277 0 1 0 0 .554h14.786a.277.277 0 1 0 0-.554zM16.295 12.238h-5.729a.277.277 0 1 0 0 .554h5.729a.277.277 0 1 0 0-.554z" />
    </symbol>
    <symbol id="icon-test" viewBox="0 0 32 32">
      <path
        d="m31.656 27.041-6.882-14.256V3.097h1.032V0h-8.258v3.097h1.032v1.032H-.001v23.742h11.426a3.456 3.456 0 0 0-.071.673 3.46 3.46 0 0 0 3.457 3.457h13.732a3.46 3.46 0 0 0 3.113-4.959zM18.581 1.032h6.194v1.032h-6.194V1.032zm1.032 11.989V3.096h4.129v9.925l1.937 4.011h-8.002l1.937-4.011zm-.144 5.044c-.179.307-.508.516-.889.516s-.71-.209-.889-.516h1.778zm-3.055-.791-.631 1.307H3.097v-7.226h15.484v1.262a2.503 2.503 0 0 0-1.032-.23 2.584 2.584 0 0 0-2.581 2.581c0 .995.584 1.879 1.446 2.306zM16 14.968a1.55 1.55 0 0 1 1.548-1.548c.259 0 .473.068.651.154l-1.339 2.774a1.552 1.552 0 0 1-.861-1.38zM1.032 5.161H18.58v3.097H1.032V5.161zm11.263 20.645-.499 1.032H1.032V9.29H18.58v1.032H2.064v9.29h13.22l-.499 1.032H2.063v1.032h12.223l-.499 1.032H2.062v1.032h11.227l-.499 1.032H2.062v1.032h10.23zm16.248 5.162H14.811a2.426 2.426 0 0 1-2.183-3.478l4.242-8.787c.371.549.999.91 1.71.91.959 0 1.761-.66 1.991-1.548h5.605l4.55 9.425a2.426 2.426 0 0 1-2.183 3.478z" />
      <path
        d="M24.774 19.097c-1.139 0-2.065.926-2.065 2.065s.926 2.065 2.065 2.065 2.065-.926 2.065-2.065-.926-2.065-2.065-2.065zm0 3.097a1.033 1.033 0 0 1 0-2.064 1.033 1.033 0 0 1 0 2.064zM18.065 24.774c-1.139 0-2.065.926-2.065 2.065s.926 2.065 2.065 2.065 2.065-.926 2.065-2.065-.926-2.065-2.065-2.065zm0 3.097a1.033 1.033 0 0 1 0-2.064 1.033 1.033 0 0 1 0 2.064zM2.065 6.194h1.032v1.032H2.065V6.194zM4.129 6.194h1.032v1.032H4.129V6.194zM6.194 6.194h1.032v1.032H6.194V6.194zM7.226 12.387c-1.423 0-2.581 1.158-2.581 2.581s1.158 2.581 2.581 2.581 2.581-1.158 2.581-2.581-1.158-2.581-2.581-2.581zm0 4.129c-.854 0-1.548-.695-1.548-1.548s.695-1.548 1.548-1.548 1.548.695 1.548 1.548-.695 1.548-1.548 1.548z" />
      <path
        d="M12.387 12.387c-1.423 0-2.581 1.158-2.581 2.581s1.158 2.581 2.581 2.581 2.581-1.158 2.581-2.581-1.158-2.581-2.581-2.581zm0 4.129c-.854 0-1.548-.695-1.548-1.548s.695-1.548 1.548-1.548 1.548.695 1.548 1.548-.695 1.548-1.548 1.548z" />
    </symbol>
    <symbol id="icon-web-key" viewBox="0 0 32 32">
      <path
        d="M24.228 0a7.718 7.718 0 0 0-6.817 4.114H2.63A2.573 2.573 0 0 0 .059 6.685v15.427a2.573 2.573 0 0 0 2.571 2.571h4.628v2.057H4.173v1.028h15.941v1.293l4.114 2.938 4.114-2.938v-3.563l-1.33-1.33 1.33-1.329v-1.968l-1.33-1.33 1.33-1.33v-3.98a7.74 7.74 0 0 0 3.6-6.518C31.942 3.46 28.482 0 24.229 0zM18.07 12.341H3.144V7.199H16.54c-.011.171-.026.34-.026.514 0 1.691.566 3.311 1.556 4.628zm-.013 14.399h-9.77v-2.057h9.77v2.057zm2.057 0h-1.028v-2.057h1.028v2.057zm0-3.085H2.63a1.545 1.545 0 0 1-1.543-1.543v-.514h19.026v2.057zm0-3.086H1.088V6.685c0-.851.692-1.543 1.543-1.543h14.334a7.572 7.572 0 0 0-.295 1.028H2.116v7.199h16.881c.343.318.716.607 1.117.861v6.338zm7.456-7.072-.257.149v4.14l-1.756 1.756 1.756 1.756v1.117l-1.756 1.755 1.756 1.756v2.608l-2.571 1.836V15.943h-1.028v14.428l-2.571-1.836V13.648l-.257-.149a6.71 6.71 0 0 1-3.343-5.784c0-3.686 2.999-6.685 6.685-6.685s6.685 2.999 6.685 6.685a6.711 6.711 0 0 1-3.343 5.784z" />
      <path
        d="M24.228 2.057c-1.418 0-2.571 1.153-2.571 2.571s1.153 2.571 2.571 2.571c1.418 0 2.571-1.153 2.571-2.571s-1.153-2.571-2.571-2.571zm0 4.114c-.851 0-1.543-.692-1.543-1.543s.692-1.543 1.543-1.543 1.543.692 1.543 1.543-.692 1.543-1.543 1.543zM23.713 13.884h1.028v1.028h-1.028v-1.028zM2.116 14.398h16.97v1.028H2.116v-1.028zM2.116 16.455h16.97v1.028H2.116v-1.028zM2.116 18.512h14.913v1.028H2.116v-1.028zM18.057 18.512h1.028v1.028h-1.028v-1.028z" />
    </symbol>
    <symbol id="icon-laptop-webrepo" viewBox="0 0 32 32">
      <path
        d="M4.667 6.667h6V8h-6V6.667zM12 6.667h3.333V8H12V6.667zM4.667 16.667h6V18h-6v-1.333zM12 16.667h3.333V18H12v-1.333zM4.667 13.333h4v1.333h-4v-1.333zM19.333 13.333h2v1.333h-2v-1.333zM10 13.333h8v1.333h-8v-1.333zM13.333 10H16v1.333h-2.667V10zM4.667 10H12v1.333H4.667V10zM17.333 10h10v1.333h-10V10zM4.667 20h10v1.333h-10V20zM25.471 15.862l-.943.943 1.862 1.862-1.862 1.862.943.943 2.805-2.805zM20.138 16.805l-.943-.943-2.805 2.805 2.805 2.805.943-.943-1.862-1.862zM20.382 21.759l2.664-6.667 1.238.495-2.664 6.667-1.238-.495z" />
      <path
        d="M30.667 23.333v-20H1.334v20H.001v2.869l1.643 2.465h28.714l1.643-2.465v-2.869h-1.333zm-28-18.666h26.667v18.667H2.667V4.667zm28 21.131-1.023 1.535H2.358l-1.023-1.535v-1.131h29.333v1.131z" />
      <path
        d="M18 25.333h1.333v1.333H18v-1.333zM15.333 25.333h1.333v1.333h-1.333v-1.333zM12.667 25.333H14v1.333h-1.333v-1.333z" />
    </symbol>
    <symbol id="icon-logo" viewBox="0 0 37 32">
      <path
        d="M45.9106 56.3295C42.9538 56.3295 40.5566 58.7063 40.5566 61.6381C40.5566 64.57 42.9538 66.9468 45.9106 66.9468C48.8674 66.9468 51.2645 64.57 51.2645 61.6381C51.2645 58.7063 48.8674 56.3295 45.9106 56.3295Z"
        fill="url(#paint0_linear_646_3236)" />
      <path
        d="M32.8373 65.403V59.2663C34.0642 59.0561 35.0011 57.9672 35.0011 56.6531C35.0011 55.1873 33.841 54 32.4087 54C30.9764 54 29.8163 55.1873 29.8163 56.6531C29.8163 57.1718 29.9645 57.6537 30.2155 58.0623L27.2939 60.4669C26.5476 59.0578 25.0892 58.1006 23.4125 58.1006C20.9749 58.1006 19 60.1234 19 62.6165C19 65.1112 20.9765 67.1323 23.4125 67.1323C25.8502 67.1323 27.8251 65.1095 27.8251 62.6165C27.8251 62.1629 27.7583 61.7243 27.6361 61.3107L30.7858 58.7193C31.1247 58.9978 31.5337 59.1912 31.9818 59.2663V65.5047C30.5854 65.8666 29.5507 67.1573 29.5507 68.6998C29.5507 70.5225 30.9944 72 32.7753 72C34.5563 72 36 70.5225 36 68.6998C35.9984 66.8988 34.5889 65.438 32.8373 65.403Z"
        fill="url(#paint1_linear_646_3236)" />
      <path
        d="M25.2393 5.68863V11.3854C24.1079 11.5683 23.2451 12.5232 23.2451 13.6756C23.2451 14.9586 24.3143 16 25.6354 16C26.9548 16 28.0258 14.9602 28.0258 13.6756C28.0258 13.4699 27.9955 13.2708 27.9435 13.0798L30.9767 11.3773C31.7187 12.1412 32.7661 12.6195 33.9311 12.6195C36.1787 12.6195 38 10.8484 38 8.66272C38 6.47705 36.1787 4.70598 33.9311 4.70598C31.6834 4.70598 29.8621 6.47705 29.8621 8.66272C29.8621 9.43644 30.0938 10.1547 30.4882 10.7635L27.6178 12.3746C27.2586 11.8572 26.6896 11.4915 26.0316 11.3854V5.77841C27.6464 5.7474 28.9456 4.46766 28.9456 2.89084C28.9456 1.29443 27.6145 0 25.9728 0C24.3311 0 23 1.29443 23 2.89084C22.9983 4.24077 23.9518 5.37196 25.2393 5.68863Z"
        fill="url(#paint2_linear_646_3236)" />
      <path
        d="M3.81175 26.064C3.88765 26.064 3.96354 26.0571 4.03775 26.052L5.01767 30.4707C2.29548 30.6481 0.139992 32.93 0.139992 35.7268C0.139992 38.6397 2.47426 41 5.35499 41C8.23572 41 10.57 38.6397 10.57 35.7268C10.57 33.0579 8.60678 30.8579 6.06337 30.5083L5.03116 25.8576C6.53562 25.3426 7.62011 23.9066 7.62011 22.2114C7.62011 21.9181 7.58469 21.6333 7.52397 21.3587L11.3897 19.1024C12.3156 20.5708 13.9365 21.5463 15.785 21.5463C18.6657 21.5463 21 19.186 21 16.2731C21 13.3603 18.6657 11 15.785 11C12.9043 11 10.57 13.3603 10.57 16.2731C10.57 16.9502 10.6999 17.5931 10.9292 18.1883L7.16473 20.3866C6.52045 19.1809 5.26055 18.3606 3.81006 18.3606C1.70517 18.3606 0 20.0848 0 22.2131C0.00168661 24.3398 1.70854 26.064 3.81175 26.064Z"
        fill="url(#paint3_linear_646_3236)" />
      <path
        d="M45.5 8C43.5662 8 42 9.56777 42 11.5C42 13.4338 43.5678 15 45.5 15C47.4338 15 49 13.4322 49 11.5C49.0016 9.5662 47.4338 8 45.5 8Z"
        fill="url(#paint4_linear_646_3236)" />
      <path
        d="M16.7061 49.8988C17.2681 50.4456 18.0371 50.783 18.8886 50.783C20.6067 50.783 22 49.4068 22 47.7099C22 46.2872 21.019 45.0939 19.6896 44.7432L19.1797 37.1312C20.7615 36.9866 22 35.6736 22 34.0731C22 32.3761 20.6067 31 18.8886 31C17.1705 31 15.7772 32.3761 15.7772 34.0731C15.7772 35.5157 16.7851 36.7223 18.1431 37.0531L18.653 44.6485C17.046 44.7682 15.7789 46.0911 15.7789 47.7099C15.7789 48.1986 15.8983 48.6589 16.1036 49.0694L9.78823 52.671C9.07811 51.865 8.03649 51.3547 6.87034 51.3547C4.73324 51.3547 3 53.0666 3 55.1774C3 57.2881 4.73324 59 6.87034 59C9.00744 59 10.7407 57.2881 10.7407 55.1774C10.7407 54.584 10.5993 54.0239 10.3553 53.522L16.7061 49.8988Z"
        fill="url(#paint5_linear_646_3236)" />
      <path
        d="M58.9968 20.4759H58.1827C57.513 20.4759 56.9228 20.6985 56.412 21.1421C55.9337 21.5551 55.6937 22.0793 55.6937 22.7133V41.2869C55.6937 45.1923 54.4645 48.2879 52.0079 50.5721C49.5512 52.8579 46.1833 54 41.9073 54C36.8659 54 33.0033 52.8885 30.3229 50.6673C27.6425 48.4137 26.3015 45.302 26.3015 41.3337V22.8569C26.3015 22.1584 26.0469 21.5873 25.5361 21.1421C25.0577 20.6969 24.4675 20.4759 23.7654 20.4759H23V20H36.7864V20.4759H36.021C35.3189 20.4759 34.7287 20.6985 34.2503 21.1421C33.7719 21.5551 33.5157 22.0938 33.4849 22.7617V40.953C33.4849 44.318 34.3152 46.9845 35.974 48.9525C37.6329 50.9205 39.916 51.9045 42.8186 51.9045C45.7228 51.9045 48.0205 50.9834 49.7118 49.1429C51.403 47.27 52.2641 44.7455 52.2965 41.5708V22.7617C52.2965 22.0955 52.0419 21.5551 51.5311 21.1421C51.0528 20.6969 50.4626 20.4759 49.7604 20.4759H48.995V20H59V20.4759H58.9968Z"
        fill="url(#paint6_linear_646_3236)" />

      <linearGradient id="paint0_linear_646_3236" x1="40.5566" y1="64.7116" x2="51.2638"
        y2="64.7866" gradientUnits="userSpaceOnUse">
        <stop stop-color="#035D95" />
        <stop offset="0.231875" stop-color="#049BBE" />
        <stop offset="0.836875" stop-color="#01C8EE" />
      </linearGradient>
      <linearGradient id="paint1_linear_646_3236" x1="19" y1="68.2105" x2="35.9989" y2="68.322"
        gradientUnits="userSpaceOnUse">
        <stop stop-color="#035D95" />
        <stop offset="0.231875" stop-color="#049BBE" />
        <stop offset="0.836875" stop-color="#01C8EE" />
      </linearGradient>
      <linearGradient id="paint2_linear_646_3236" x1="23" y1="12.6316" x2="37.999" y2="12.7292"
        gradientUnits="userSpaceOnUse">
        <stop stop-color="#035D95" />
        <stop offset="0.231875" stop-color="#049BBE" />
        <stop offset="0.836875" stop-color="#01C8EE" />
      </linearGradient>
      <linearGradient id="paint3_linear_646_3236" x1="1.3174e-08" y1="34.6842" x2="20.9991"
        y2="34.7863" gradientUnits="userSpaceOnUse">
        <stop stop-color="#035D95" />
        <stop offset="0.231875" stop-color="#049BBE" />
        <stop offset="0.836875" stop-color="#01C8EE" />
      </linearGradient>
      <linearGradient id="paint4_linear_646_3236" x1="42" y1="13.5263" x2="48.9995" y2="13.5749"
        gradientUnits="userSpaceOnUse">
        <stop stop-color="#035D95" />
        <stop offset="0.231875" stop-color="#049BBE" />
        <stop offset="0.836875" stop-color="#01C8EE" />
      </linearGradient>
      <linearGradient id="paint5_linear_646_3236" x1="3" y1="53.1053" x2="21.9992" y2="53.1948"
        gradientUnits="userSpaceOnUse">
        <stop stop-color="#035D95" />
        <stop offset="0.231875" stop-color="#049BBE" />
        <stop offset="0.836875" stop-color="#01C8EE" />
      </linearGradient>
      <linearGradient id="paint6_linear_646_3236" x1="23" y1="46.8421" x2="58.9973" y2="47.1067"
        gradientUnits="userSpaceOnUse">
        <stop stop-color="#035D95" />
        <stop offset="0.231875" stop-color="#049BBE" />
        <stop offset="0.836875" stop-color="#01C8EE" />
      </linearGradient>
    </symbol>
  </defs>
</svg>